<?xml version="1.0" encoding="utf-8"?>
<!-- Generator: Adobe Illustrator 22.1.0, SVG Export Plug-In . SVG Version: 6.00 Build 0)  -->
<svg version="1.1" id="Layer_1" xmlns="http://www.w3.org/2000/svg" xmlns:xlink="http://www.w3.org/1999/xlink" x="0px" y="0px"
	 viewBox="0 0 62 63.3" style="enable-background:new 0 0 62 63.3;" xml:space="preserve">
<style type="text/css">
	.st0{fill:#F6F5FE;}
	.st1{fill:#6399D1;stroke:#6399D1;stroke-width:0.25;stroke-linejoin:round;}
</style>
<circle class="st0" cx="31.4" cy="32" r="30"/>
<g>
	<g>
		<g>
			<g>
				<path class="st1" d="M32.1,12.5c-10.5,0-19,8.5-19,19s8.5,19,19,19s19-8.5,19-19C51.1,21,42.6,12.5,32.1,12.5z M49.2,36.4L48,36
					l-0.4,1.2l1.2,0.4c-0.5,1.3-1.2,2.6-2,3.8l-1-0.7l-0.7,1l1,0.7c-0.9,1.1-1.9,2.1-3,3l-0.7-1l-1,0.7l0.7,1
					c-1.2,0.8-2.5,1.5-3.8,2L37.8,47l-1.2,0.4l0.4,1.2c-1.4,0.4-2.8,0.6-4.2,0.7V48h-1.3v1.3c-1.4-0.1-2.9-0.3-4.2-0.7l0.4-1.2
					L26.4,47L26,48.2c-1.3-0.5-2.6-1.2-3.8-2l0.7-1l-1-0.7l-0.7,1c-1.1-0.9-2.1-1.9-3-3l1-0.7l-0.7-1l-1,0.7
					c-0.8-1.2-1.5-2.5-1.9-3.8l1.2-0.4L16.3,36l-1.2,0.4c-0.4-1.4-0.6-2.8-0.7-4.2h1.3v-1.3h-1.3c0.1-1.4,0.3-2.9,0.7-4.2l1.2,0.4
					l0.4-1.2l-1.2-0.4c0.5-1.3,1.2-2.6,2-3.8l1,0.7l0.7-1l-1-0.7c0.9-1.1,1.9-2.1,3-3l0.7,1l1-0.7l-0.7-1c1.2-0.8,2.5-1.5,3.8-1.9
					l0.4,1.2l1.2-0.4l-0.4-1.2c1.4-0.4,2.8-0.6,4.2-0.7v1.3h1.3v-1.3c1.4,0.1,2.9,0.3,4.2,0.7l-0.4,1.2l1.2,0.4l0.4-1.2
					c1.3,0.5,2.6,1.2,3.8,2l-0.7,1l1,0.7l0.7-1c1.1,0.9,2.1,1.9,3,3l-1,0.7l0.7,1l1-0.7c0.8,1.2,1.5,2.5,2,3.8l-1.2,0.4L48,27
					l1.2-0.4c0.4,1.4,0.6,2.8,0.7,4.2h-1.3v1.3h1.3C49.8,33.6,49.6,35,49.2,36.4z"/>
			</g>
		</g>
		<g>
			<g>
				<path class="st1" d="M32.1,17.6c-7.7,0-13.9,6.2-13.9,13.9s6.2,13.9,13.9,13.9s13.9-6.2,13.9-13.9C46,23.8,39.8,17.6,32.1,17.6z
					 M32.1,44.2c-7,0-12.7-5.7-12.7-12.7s5.7-12.7,12.7-12.7s12.7,5.7,12.7,12.7C44.8,38.5,39.1,44.2,32.1,44.2z"/>
			</g>
		</g>
		<g>
			<g>
				<path class="st1" d="M32.1,20.8c-5.9,0-10.8,4.8-10.8,10.8s4.8,10.8,10.8,10.8s10.8-4.8,10.8-10.8
					C42.9,25.6,38.1,20.8,32.1,20.8z M40.3,26.7c0.7,1.2,1.2,2.6,1.3,4l-4-0.3c-0.3,0-0.6-0.3-0.6-0.7c0-0.2,0.1-0.3,0.2-0.4
					L40.3,26.7z M34.2,22.3L32.7,26c-0.1,0.3-0.5,0.5-0.8,0.3c-0.2-0.1-0.3-0.2-0.3-0.3L30,22.3C31.4,22,32.8,22,34.2,22.3z
					 M24,26.7l3,2.6c0.3,0.2,0.3,0.6,0.1,0.9c-0.1,0.1-0.3,0.2-0.4,0.2l-4,0.3C22.8,29.3,23.2,27.9,24,26.7z M29.3,36.4l-0.9,3.9
					c-1.3-0.6-2.5-1.4-3.4-2.5h0l3.4-2.1c0.3-0.2,0.7-0.1,0.9,0.2C29.3,36.1,29.3,36.2,29.3,36.4z M35.9,40.3L35.9,40.3l-0.9-3.9
					c-0.1-0.3,0.1-0.7,0.5-0.8c0.2,0,0.3,0,0.5,0.1l3.4,2.1C38.3,38.9,37.2,39.7,35.9,40.3z M36.5,34.6c-0.9-0.5-2.1-0.3-2.6,0.6
					c-0.3,0.4-0.3,0.9-0.2,1.4l1,4c-1.7,0.5-3.4,0.5-5.1,0h0l1-4c0.2-1-0.4-2-1.4-2.3c-0.5-0.1-1,0-1.4,0.2l-3.5,2.1
					c-0.9-1.4-1.5-3.1-1.6-4.8l4.1-0.3c1-0.1,1.8-1,1.7-2c0-0.5-0.3-1-0.7-1.3l-3.1-2.7c1.1-1.3,2.5-2.4,4.1-3l1.6,3.8
					c0.4,1,1.5,1.4,2.5,1c0.5-0.2,0.8-0.6,1-1l1.6-3.8c1.6,0.6,3,1.6,4.1,3l-3.1,2.7c-0.8,0.7-0.9,1.9-0.2,2.7
					c0.3,0.4,0.8,0.6,1.3,0.7l4.1,0.3c-0.1,1.7-0.6,3.4-1.6,4.8L36.5,34.6z"/>
			</g>
		</g>
		<g>
			<g>
				<path class="st1" d="M32.1,29c-1.4,0-2.5,1.1-2.5,2.5c0,1.4,1.1,2.5,2.5,2.5c1.4,0,2.5-1.1,2.5-2.5C34.7,30.1,33.5,29,32.1,29z
					 M32.1,32.8c-0.7,0-1.3-0.6-1.3-1.3c0-0.7,0.6-1.3,1.3-1.3c0.7,0,1.3,0.6,1.3,1.3C33.4,32.2,32.8,32.8,32.1,32.8z"/>
			</g>
		</g>
	</g>
</g>
</svg>
