<svg id="Layer_1" data-name="Layer 1" xmlns="http://www.w3.org/2000/svg" viewBox="0 0 144 144"><defs><style>.cls-1{fill:#4e4d4d;}</style></defs><title>ATV</title><path class="cls-1" d="M62.09,69.94v4a1.38,1.38,0,0,1-2.75,0v-4a1.38,1.38,0,1,1,2.75,0Zm4.13-1.38a1.38,1.38,0,0,0-1.38,1.38v4a1.38,1.38,0,0,0,2.76,0v-4A1.38,1.38,0,0,0,66.22,68.56Zm5.51,0a1.38,1.38,0,0,0-1.38,1.38v4a1.38,1.38,0,0,0,2.75,0v-4A1.37,1.37,0,0,0,71.73,68.56ZM51.34,85.2a7,7,0,1,1-7-7A7,7,0,0,1,51.34,85.2Zm-2.75,0a4.28,4.28,0,1,0-4.27,4.27A4.28,4.28,0,0,0,48.59,85.2Zm64.68,0a13.59,13.59,0,0,1-27.11,1.3H79.34a1.37,1.37,0,0,1-1.19-.69l-2.63-4.56H66.59L64,85.81a1.36,1.36,0,0,1-1.19.69H57.84a13.59,13.59,0,1,1-8.66-14l1.47-2.91L35.59,60A1.36,1.36,0,0,1,35,58.81v-6.4A1.37,1.37,0,0,1,36.33,51h10a1.42,1.42,0,0,1,1,.38L52,55.94l13.9,4.42a9.52,9.52,0,0,1,9.32-7.66,9.7,9.7,0,0,1,2.68.38h0s-4.54-4.65-4.56-4.69A1.59,1.59,0,0,0,72.21,48H66.87a1.38,1.38,0,0,1,0-2.75h5.34a4.28,4.28,0,0,1,3.16,1.35l4.52,4.65c1.17-1,2-1.72,2-1.77a1.39,1.39,0,0,1,1.44-.2,29,29,0,0,1,7.43,5.23,26.65,26.65,0,0,1,8.32,17.15h.55A13.6,13.6,0,0,1,113.27,85.2Zm-44.76-24L96.16,70a23,23,0,0,0-2.54-7.39h-7.3a1.38,1.38,0,1,1,0-2.75h5.55A27.82,27.82,0,0,0,83,52.14c-.84.72-2.32,2-3.87,3.51a1.38,1.38,0,0,1-1.46.28,6.75,6.75,0,0,0-9.18,5.27Zm-13.36,24A10.84,10.84,0,1,0,44.32,96,10.85,10.85,0,0,0,55.15,85.2Zm25-1.45h6A13.62,13.62,0,0,1,94.9,72.48l-44.08-14a1.64,1.64,0,0,1-.54-.32l-4.51-4.36H37.7v4.26L53.18,68a1.37,1.37,0,0,1,.49,1.78l-2,4a13.62,13.62,0,0,1,6.2,10H62l2.63-4.56a1.36,1.36,0,0,1,1.19-.69H76.31a1.38,1.38,0,0,1,1.2.69Zm30.38,1.45A10.84,10.84,0,1,0,99.68,96,10.85,10.85,0,0,0,110.52,85.2Zm-3.81,0a7,7,0,1,1-7-7A7,7,0,0,1,106.71,85.2Zm-2.75,0a4.28,4.28,0,1,0-4.28,4.27A4.28,4.28,0,0,0,104,85.2Z"/></svg>