<?xml version="1.0" encoding="utf-8"?>
<!-- Generator: Adobe Illustrator 22.1.0, SVG Export Plug-In . SVG Version: 6.00 Build 0)  -->
<svg version="1.1" id="Layer_1" xmlns="http://www.w3.org/2000/svg" xmlns:xlink="http://www.w3.org/1999/xlink" x="0px" y="0px"
	 viewBox="0 0 62 63.3" style="enable-background:new 0 0 62 63.3;" xml:space="preserve">
<style type="text/css">
	.st0{fill:#F6F5FE;}
	.st1{fill:#6399D1;stroke:#6399D1;stroke-width:0.25;stroke-linejoin:round;}
</style>
<circle class="st0" cx="31.4" cy="32" r="30"/>
<g>
	<g>
		<path class="st1" d="M17.5,43.4c3.2,0,5.7-2.6,5.7-5.7c0-1.9-0.9-3.5-2.3-4.6l2.3-3.8l3.5,9.9c0,0,0,0,0,0.1
			c0,0.1,1.2,2.4,4.4,2.1l5,0c0.1,0,0.2,0,0.3,0c0.7,0,2.2-0.3,3.2-2.8l0.6-1.2c0,0,0,0.1,0,0.1c0,3.2,2.6,5.7,5.7,5.7
			c3.2,0,5.7-2.6,5.7-5.7c0-2.5-1.7-4.7-4-5.4c0.2,0,0.4,0,0.4,0c0,0,0.1,0,0.1,0c0.3,0,0.5-0.2,0.5-0.5c0-0.2-0.1-0.3-0.2-0.4
			c-0.2-0.2-0.4-0.5-0.8-0.8v-0.8c0-0.3-0.2-0.5-0.5-0.5h-1.3c-0.2,0-0.3,0.1-0.4,0.2c-0.2,0-0.5-0.1-0.7-0.1
			c-1.1,0-2.4,0.4-3.9,1.3c0,0,0,0,0,0c0,0,0,0,0,0c-1.1,0.7-2.3,1-3.6,1c-2.3,0-4.1-1.1-4.4-1.3c-1.9-2-3.9-2.7-5.5-2.9l0.9-1.4
			h5.7v2.8c0,0.2,0.1,0.4,0.2,0.5c1,0.6,2.1,1,3.3,1c0,0,0,0,0,0c1.5,0,2.9-0.5,4.3-0.9c1.4-0.4,2.7-0.8,4-0.8c1,0,1.9,0.3,2.7,0.8
			c0.2,0.1,0.4,0.1,0.5,0c0.2-0.1,0.3-0.3,0.3-0.5v-8c0-0.2-0.1-0.4-0.2-0.5c-1-0.6-2.1-1-3.3-1c-1.5,0-2.9,0.5-4.3,0.9
			c-1.4,0.4-2.7,0.8-4,0.8c-1,0-1.9-0.3-2.7-0.8c-0.2-0.1-0.4-0.1-0.5,0c-0.2,0.1-0.3,0.3-0.3,0.5v4.1h-5.1l0.7-1.1h2.2
			c0.3,0,0.5-0.2,0.5-0.5s-0.2-0.5-0.5-0.5h-2.5c0,0,0,0-0.1,0c0,0-0.1,0-0.1,0c0,0-0.1,0-0.1,0s-0.1,0-0.1,0.1c0,0-0.1,0.1-0.1,0.1
			c0,0,0,0,0,0l-2.7,4.3c0,0,0,0.1,0,0.1c-0.8,0-1.6,0.2-2.1,0.3l3.3-5.4h3.1c0.3,0,0.5-0.2,0.5-0.5c0-0.3-0.2-0.5-0.5-0.5h-3.4
			c0,0,0,0-0.1,0c0,0-0.1,0-0.1,0c0,0-0.1,0-0.1,0c0,0-0.1,0-0.1,0.1c0,0-0.1,0.1-0.1,0.1c0,0,0,0,0,0L20,32.5
			c-0.8-0.4-1.6-0.6-2.5-0.6c-3.2,0-5.7,2.6-5.7,5.7C11.8,40.8,14.4,43.4,17.5,43.4z M35.3,21.7c0.8,0.3,1.6,0.5,2.5,0.5
			c1.5,0,2.9-0.5,4.3-0.9c1.4-0.4,2.7-0.8,4-0.8c0.9,0,1.7,0.2,2.5,0.6v6.8c-0.8-0.3-1.6-0.5-2.5-0.5c-1.5,0-2.9,0.5-4.3,0.9
			c-1.4,0.4-2.7,0.8-4,0.9l0,0c-0.9,0-1.7-0.2-2.5-0.6V26h0.3l0.7,0.7c0.1,0.1,0.2,0.2,0.4,0.2c0.1,0,0.3-0.1,0.4-0.2
			c0.2-0.2,0.2-0.5,0-0.8l-0.5-0.5l0.7-0.7c0.2-0.2,0.2-0.5,0-0.8c-0.2-0.2-0.5-0.2-0.8,0l-0.9,0.9h-0.3
			C35.3,24.9,35.3,21.7,35.3,21.7z M31.1,40.3c-2.3,0.2-3.3-1.3-3.4-1.5l-2.7-7.7c1.5,1.4,3.7,3,6.5,3.8c0,0,0,0.1,0,0.1l0.5,5.3
			L31.1,40.3z M38.7,38.2C38.7,38.2,38.7,38.2,38.7,38.2c-1,2.4-2.4,2.2-2.4,2.2c0,0-0.1,0-0.1,0l-3.1,0l-0.5-5.1
			c0.9,0.2,1.8,0.3,2.7,0.3c0,0,0,0,0,0c1.8,0,3.7-0.4,5.5-1.2L38.7,38.2z M50.7,37.6c0,2.6-2.1,4.7-4.7,4.7c-2.6,0-4.7-2.1-4.7-4.7
			c0-1.5,0.7-2.8,1.8-3.7l1.1,1.8c-0.5,0.5-0.8,1.2-0.8,1.9c0,1.4,1.2,2.6,2.6,2.6c1.4,0,2.6-1.2,2.6-2.6c0-1.4-1.2-2.6-2.6-2.6
			c-0.3,0-0.6,0.1-0.9,0.2l-1.1-1.8c0.6-0.3,1.3-0.4,2-0.4C48.6,33,50.7,35.1,50.7,37.6z M44.8,36.7l0.8,1.2
			c0.1,0.2,0.3,0.3,0.5,0.3c0.1,0,0.2,0,0.3-0.1c0.3-0.2,0.3-0.5,0.2-0.7l-0.8-1.2c0.1,0,0.2,0,0.3,0c0.9,0,1.6,0.7,1.6,1.6
			c0,0.9-0.7,1.6-1.6,1.6c-0.9,0-1.6-0.7-1.6-1.6C44.5,37.3,44.6,37,44.8,36.7z M47,31.1c-1.2,0-2.8,0.3-4.4,1.2
			c-0.8,0.5-1.7,0.9-2.5,1.2l1.7-2.1c1.2-0.7,2.3-1.1,3.2-1.1C45.8,30.4,46.5,30.7,47,31.1z M39.6,32.4l-1.4,1.7
			c-0.9,0.2-1.9,0.3-2.8,0.3c0,0,0,0,0,0c-1,0-1.9-0.1-2.8-0.3l0.6-2.6c0.9,0.4,2.4,1.1,4.4,1.1C38.2,32.6,38.9,32.5,39.6,32.4z
			 M26.6,28.4c2.1,0,4,0.8,5.6,2.4l-0.7,2.9c-3.7-1.2-6.3-3.9-7.2-5C24.8,28.6,25.6,28.4,26.6,28.4z M17.5,33c0.7,0,1.4,0.2,2,0.4
			l-1.1,1.8c-0.3-0.1-0.6-0.2-0.9-0.2c-1.4,0-2.6,1.2-2.6,2.6c0,1.4,1.2,2.6,2.6,2.6c1.4,0,2.6-1.2,2.6-2.6c0-0.8-0.3-1.4-0.8-1.9
			l1.1-1.8c1.1,0.9,1.8,2.2,1.8,3.7c0,2.6-2.1,4.7-4.7,4.7s-4.7-2.1-4.7-4.7C12.9,35.1,15,33,17.5,33z M19.1,37.6
			c0,0.9-0.7,1.6-1.6,1.6c-0.9,0-1.6-0.7-1.6-1.6c0-0.9,0.7-1.6,1.6-1.6c0.1,0,0.2,0,0.3,0l-0.8,1.2c-0.2,0.3-0.1,0.6,0.2,0.7
			c0.1,0.1,0.2,0.1,0.3,0.1c0.2,0,0.4-0.1,0.5-0.3l0.8-1.2C18.9,37,19.1,37.3,19.1,37.6z"/>
		<path class="st1" d="M35.8,36c-0.9,0-1.6,0.7-1.6,1.6s0.7,1.6,1.6,1.6c0.9,0,1.6-0.7,1.6-1.6C37.5,36.8,36.7,36,35.8,36z
			 M35.8,38.2c-0.3,0-0.5-0.2-0.5-0.5s0.2-0.5,0.5-0.5c0.3,0,0.5,0.2,0.5,0.5C36.4,37.9,36.1,38.2,35.8,38.2z"/>
		<path class="st1" d="M20.3,30.2C20.3,30.2,20.3,30.2,20.3,30.2c0.3,0,0.4-0.1,0.5-0.2l2.6-4.2c0.1-0.2,0.1-0.4,0-0.5
			c-0.1-0.2-0.3-0.3-0.5-0.3h-2.6c-0.2,0-0.4,0.1-0.5,0.3c-0.8,2,0,4.5,0,4.6C19.9,30,20.1,30.2,20.3,30.2z M20.7,26H22l-1.4,2.3
			C20.5,27.6,20.5,26.7,20.7,26z"/>
	</g>
</g>
</svg>
