<svg xmlns="http://www.w3.org/2000/svg" width="38" height="40" viewBox="0 0 38 40">
  <metadata><?xpacket begin="﻿" id="W5M0MpCehiHzreSzNTczkc9d"?>
<x:xmpmeta xmlns:x="adobe:ns:meta/" x:xmptk="Adobe XMP Core 5.6-c138 79.159824, 2016/09/14-01:09:01        ">
   <rdf:RDF xmlns:rdf="http://www.w3.org/1999/02/22-rdf-syntax-ns#">
      <rdf:Description rdf:about=""/>
   </rdf:RDF>
</x:xmpmeta>
                                                                                                    
                                                                                                    
                                                                                                    
                                                                                                    
                                                                                                    
                                                                                                    
                                                                                                    
                                                                                                    
                                                                                                    
                                                                                                    
                                                                                                    
                                                                                                    
                                                                                                    
                                                                                                    
                                                                                                    
                                                                                                    
                                                                                                    
                                                                                                    
                                                                                                    
                                                                                                    
                           
<?xpacket end="w"?></metadata>
<defs>
    <style>
      .cls-1 {
        fill: #425894;
        fill-rule: evenodd;
      }
    </style>
  </defs>
  <path class="cls-1" d="M1060.51,1309.95v1.17a1.846,1.846,0,0,1-1.55,1.84l-0.29,1.06a1.3,1.3,0,0,1-1.26.98h-2.83a1.3,1.3,0,0,1-1.26-.98l-0.28-1.06a1.853,1.853,0,0,1-1.56-1.84v-1.17a1.118,1.118,0,0,1,1.11-1.13h6.81A1.125,1.125,0,0,1,1060.51,1309.95Zm5.24-15.75a9.87,9.87,0,0,1-2.73,6.84,9.079,9.079,0,0,0-2.4,4.91,1.614,1.614,0,0,1-1.6,1.37h-6.05a1.6,1.6,0,0,1-1.59-1.37,9.123,9.123,0,0,0-2.41-4.92A9.8,9.8,0,1,1,1065.75,1294.2Zm-8.65-5.97a1.112,1.112,0,0,0-1.1-1.11,7.085,7.085,0,0,0-7.04,7.11,1.1,1.1,0,1,0,2.2,0,4.872,4.872,0,0,1,4.84-4.88A1.108,1.108,0,0,0,1057.1,1288.23Zm-1.1-7.11a1.114,1.114,0,0,0,1.1-1.12v-3.89a1.1,1.1,0,1,0-2.2,0V1280A1.114,1.114,0,0,0,1056,1281.12Zm-12.95,13.07a1.105,1.105,0,0,0-1.1-1.11h-3.85a1.11,1.11,0,0,0,0,2.22h3.85A1.1,1.1,0,0,0,1043.05,1294.19Zm30.85-1.11h-3.85a1.11,1.11,0,0,0,0,2.22h3.85A1.11,1.11,0,0,0,1073.9,1293.08Zm-28.61,10.36-2.73,2.76a1.117,1.117,0,0,0,0,1.57,1.089,1.089,0,0,0,.78.32,1.05,1.05,0,0,0,.77-0.32l2.73-2.75a1.129,1.129,0,0,0,0-1.58A1.092,1.092,0,0,0,1045.29,1303.44Zm20.64-18.17a1.132,1.132,0,0,0,.78-0.32l2.73-2.76a1.117,1.117,0,0,0,0-1.57,1.1,1.1,0,0,0-1.56,0l-2.73,2.76a1.117,1.117,0,0,0,0,1.57A1.132,1.132,0,0,0,1065.93,1285.27Zm-20.64-.33a1.089,1.089,0,0,0,.78.32,1.05,1.05,0,0,0,.77-0.32,1.117,1.117,0,0,0,0-1.57l-2.73-2.76a1.092,1.092,0,0,0-1.55,0,1.111,1.111,0,0,0,0,1.58Zm21.42,18.5a1.1,1.1,0,0,0-1.56,0,1.129,1.129,0,0,0,0,1.58l2.73,2.75a1.1,1.1,0,0,0,1.55,0,1.117,1.117,0,0,0,0-1.57Z" transform="translate(-1037 -1275)"/>
</svg>
