<svg id="Layer_1" data-name="Layer 1" xmlns="http://www.w3.org/2000/svg" viewBox="0 0 144 144"><defs><style>.cls-1{fill:#4e4d4d;}</style></defs><title>Cruiser</title><path class="cls-1" d="M105.3,71.61A13.49,13.49,0,0,0,98,73.78L94.2,69.54l1.53-1.35a1.39,1.39,0,0,0,.12-2l-.74-.83H97.2A1.38,1.38,0,0,0,98.58,64V54.56a1.38,1.38,0,0,0-1.38-1.38h-3a6.14,6.14,0,0,0-5.91,4.51l-1.11-1.26a1.39,1.39,0,0,0-2-.12l-.74.66L83,49.22a3.05,3.05,0,0,0-3.12-2.75H74.62a1.38,1.38,0,1,0,0,2.75H79.9c.17,0,.34,0,.39.31,0,.06,1.79,9.57,1.79,9.57l-1.24,1.09A21,21,0,0,0,73.59,59c-7.21,0-13,3.28-14.08,7.71-5-.56-6.81-2.51-9.81-5.84l-.41-.46a1.37,1.37,0,0,0-1.88-.14,11.06,11.06,0,0,0-4,6.45,19.39,19.39,0,0,0-4.67-.58A19,19,0,0,0,28,69.37a1.38,1.38,0,0,0,1.55,2.28,16.33,16.33,0,0,1,24.8,18.16,1.38,1.38,0,0,0,.94,1.71,1.32,1.32,0,0,0,.39.06H78.43a1.36,1.36,0,0,0,1.3-1l5.72-17.32A8.36,8.36,0,0,0,87.2,71l1.46,1.65a1.36,1.36,0,0,0,1,.47,1.39,1.39,0,0,0,.91-.35l1.53-1.35,3.66,4.13a13.58,13.58,0,1,0,9.51-3.89ZM94.19,55.93h1.64v6.73H94.19a3.37,3.37,0,1,1,0-6.73Zm-20.6,5.78c6.24,0,11.51,2.95,11.51,6.44a4.41,4.41,0,0,1-1.4,3H63.49a4.37,4.37,0,0,1-1.4-3C62.09,64.66,67.36,61.71,73.59,61.71ZM48.18,63.25c2.92,3.22,5.34,5.57,11.29,6.18a6.33,6.33,0,0,0,.63,1.73H51.63A19.48,19.48,0,0,0,46,67.56,7.91,7.91,0,0,1,48.18,63.25ZM77.43,88.82h-20a19.06,19.06,0,0,0,.35-3.62,19.56,19.56,0,0,0-.36-3.69h5.72a1.38,1.38,0,0,0,0-2.75H56.67a19.06,19.06,0,0,0-2.58-4.84H82.35ZM89.81,69.75l-2-2.25c-.25-2.38-1.84-4.48-4.3-6L86,59.29,92.87,67ZM105.3,96A10.84,10.84,0,1,1,116.14,85.2,10.85,10.85,0,0,1,105.3,96Zm0-17.87a7,7,0,1,0,7,7A7,7,0,0,0,105.3,78.17Zm0,11.3a4.28,4.28,0,1,1,4.28-4.27A4.28,4.28,0,0,1,105.3,89.47ZM38.7,71.61A13.59,13.59,0,1,0,52.29,85.2,13.6,13.6,0,0,0,38.7,71.61ZM38.7,96A10.84,10.84,0,1,1,49.53,85.2,10.86,10.86,0,0,1,38.7,96Zm0-17.87a7,7,0,1,0,7,7A7,7,0,0,0,38.7,78.17Zm0,11.3A4.28,4.28,0,1,1,43,85.2,4.28,4.28,0,0,1,38.7,89.47ZM70,80.14v3.8a1.38,1.38,0,0,1-2.76,0v-3.8a1.38,1.38,0,0,1,2.76,0Zm5.5,0v3.8a1.38,1.38,0,0,1-2.75,0v-3.8a1.38,1.38,0,1,1,2.75,0Z"/></svg>