<svg id="Layer_1" data-name="Layer 1" xmlns="http://www.w3.org/2000/svg" viewBox="0 0 144 144"><defs><style>.cls-1{fill:#4e4d4d;}</style></defs><title>dirtbikes</title><path class="cls-1" d="M101.81,67.34a16,16,0,0,0-4,.54l-2-5.76L96,62a20.33,20.33,0,0,1,8.93-.3,1.22,1.22,0,0,0,1.22-1.89,1.24,1.24,0,0,0-.78-.5h0a22.73,22.73,0,0,0-10.22.41l-.26.07L91,48.7a1.21,1.21,0,0,0-.83-.77l-6.88-1.88a1.23,1.23,0,0,0-1.49.85,1.21,1.21,0,0,0,.12.93,1.23,1.23,0,0,0,.73.57l6.27,1.71,1.24,3.54-.53,0a101.3,101.3,0,0,0-23,4.2l-6.1,1.87-.1,0-15.62-7a1.21,1.21,0,0,0-.95,0l-5.1,2a1.22,1.22,0,0,0-.2,2.15L58.88,70.06l1,3-4.54,1.45a15.71,15.71,0,1,0,2.52,8.52c0-.15,0-.3,0-.46l4.78-1.52,2.21,6.44a1.22,1.22,0,0,0,1.15.82h7a8.68,8.68,0,0,0,8.67-8.67V75.93A20.18,20.18,0,0,1,93.15,63l.29-.12,2,5.77a15.72,15.72,0,1,0,6.34-1.34Zm-59.62,29A13.3,13.3,0,1,1,53,75.31l-2.4.76a10.9,10.9,0,1,0,2.49,8.08l2.42-.78A13.31,13.31,0,0,1,42.19,96.36ZM38.62,84.3a4.23,4.23,0,0,0,5.31,2.75L50.43,85A8.49,8.49,0,1,1,48,76.89L41.36,79A4.23,4.23,0,0,0,38.62,84.3Zm4.57.43a1.71,1.71,0,0,1-1.37-.12,1.75,1.75,0,0,1-.88-1,1.79,1.79,0,0,1,1.16-2.25l18.62-5.93,1.16,3.39Zm49.19-24a22.53,22.53,0,0,0-13,14.7l-.07.34-.24,0H68.81a1.22,1.22,0,1,0,0,2.43H79.28v1.49A6.25,6.25,0,0,1,73,85.91H66.9L61.57,70.4H75.76a1.22,1.22,0,0,0,0-2.43H60.15l-.09,0L41.9,56.18l2.45-1,15.61,7,.09,0,.17,0,.12,0,.1,0a1.1,1.1,0,0,0,.43,0l6.53-2a98.68,98.68,0,0,1,22.41-4.11L91,56l1.61,4.59Zm9.43,35.63A13.29,13.29,0,0,1,96.28,71l.79,2.26a11,11,0,1,0,2.29-.81l-.79-2.26a13.29,13.29,0,1,1,3.24,26.18ZM103,82.66l-2.79-7.92a8.94,8.94,0,0,1,1.64-.16,8.49,8.49,0,1,1-3.93,1l2.79,7.91a1.21,1.21,0,0,0,2.24.13A1.2,1.2,0,0,0,103,82.66Z"/></svg>