<svg id="Layer_1" data-name="Layer 1" xmlns="http://www.w3.org/2000/svg" viewBox="0 0 144 144"><defs><style>.cls-1{fill:#4e4d4d;}</style></defs><title>heavt bikes</title><path class="cls-1" d="M73.28,78.15V82a1.38,1.38,0,0,1-2.76,0v-3.8a1.38,1.38,0,1,1,2.76,0Zm4.13-1.38A1.38,1.38,0,0,0,76,78.15V82a1.38,1.38,0,0,0,2.75,0v-3.8A1.37,1.37,0,0,0,77.41,76.77Zm39,8.43a13.59,13.59,0,1,1-13.59-13.59A13.6,13.6,0,0,1,116.45,85.2Zm-2.75,0A10.84,10.84,0,1,0,102.86,96,10.85,10.85,0,0,0,113.7,85.2Zm-3.81,0a7,7,0,1,1-7-7A7,7,0,0,1,109.89,85.2Zm-2.75,0a4.28,4.28,0,1,0-4.28,4.27A4.28,4.28,0,0,0,107.14,85.2ZM87.73,91.35a1.38,1.38,0,0,1-1.28,1.9H62.67a1.38,1.38,0,0,1-1.21-.73l-1.67-3.1a13.58,13.58,0,0,1-26.43-2.85H28.92a1.37,1.37,0,0,1-1.37-1.37V79.8a1.36,1.36,0,0,1,.37-.94l5.32-5.7a6.6,6.6,0,0,1-3.5-5.82v-.62h-.48a1.38,1.38,0,1,1,0-2.75h.48v-.62a6.61,6.61,0,0,1,6.61-6.6h5.57L40.78,52a1.39,1.39,0,0,1,1.14-1.69,8.21,8.21,0,0,1,.85-.05c1.7,0,7.22.59,9.2,7.9h6.26a1.39,1.39,0,0,1,1.26.82l1.17,2.65h8.39c1.36-2.16,3.34-4,6.17-4h8.19a1.4,1.4,0,0,1,1,.45l1.41,1.55L88,55.57l-3.06-7.93a1.37,1.37,0,0,1,.15-1.27,1.39,1.39,0,0,1,1.14-.6h3.64a1.41,1.41,0,0,1,.54.11c.18.08,4.59,2,10.41,8.4h2.33a1.39,1.39,0,0,1,.91.34c.2.18,1.47,1.45,6.45,8.86a1.38,1.38,0,0,1-.18,1.76,24.29,24.29,0,0,1-4.64,3.55,1.3,1.3,0,0,1-.86.18A16.33,16.33,0,0,0,87.73,91.35Zm.47-42.83,2.22,5.76H97a30.64,30.64,0,0,0-7.45-5.76ZM69.45,67.82h12.2l2.84-5.49h0L82.8,60.47H75.22C71.9,60.47,70.15,65.25,69.45,67.82ZM43.88,53.16l3.57,14.66H66.6a26.49,26.49,0,0,1,1.07-3.39H59.76a1.38,1.38,0,0,1-1.26-.82L57.33,61H50.88a1.38,1.38,0,0,1-1.35-1.11C48.52,54.87,45.75,53.5,43.88,53.16ZM35.23,71l2.59-2.77a1.36,1.36,0,0,1,1-.44h5.79l-2-8.32H36.35a3.86,3.86,0,0,0-3.86,3.85V64h2a1.38,1.38,0,0,1,0,2.75h-2v.62A3.86,3.86,0,0,0,35.23,71ZM30.3,83.82H63.42a20.43,20.43,0,0,0-.93-5.24H48.06a1.38,1.38,0,0,1,0-2.76H61.39a20.43,20.43,0,0,0-3.7-5.24H39.42L30.3,80.34Zm12.53,2.75a4.27,4.27,0,0,0,8.09,0Zm14.79,0H53.77a7,7,0,0,1-13.78,0H36.13a10.83,10.83,0,0,0,21.49,0ZM83.77,85.2a19.12,19.12,0,0,1,19.09-19.1c.58,0,1.18,0,1.78.09a21.13,21.13,0,0,0,2.9-2.15l-.7-1h-6.47a1.38,1.38,0,0,1,0-2.75h4.55c-1.31-1.84-2-2.78-2.42-3.23H90.31l-6.59,12.8a1.39,1.39,0,0,1-1.23.75H61.33a22.93,22.93,0,0,1,4.86,14.18c0,.11,0,.47,0,.47a1.37,1.37,0,0,1-1.37,1.34H61.39l2.11,3.92h21A18.84,18.84,0,0,1,83.77,85.2Z"/></svg>