<?xml version="1.0" encoding="utf-8"?>
<!-- Generator: Adobe Illustrator 22.1.0, SVG Export Plug-In . SVG Version: 6.00 Build 0)  -->
<svg version="1.1" id="Layer_1" xmlns="http://www.w3.org/2000/svg" xmlns:xlink="http://www.w3.org/1999/xlink" x="0px" y="0px"
	 viewBox="0 0 50 45" style="enable-background:new 0 0 50 45;" xml:space="preserve">
<style type="text/css">
	.st0{fill:#3C92CA;}
	.st1{fill:#3C92CA;stroke:#000000;stroke-miterlimit:10;}
</style>
<rect x="12.4" y="30.82" class="st0" width="19.41" height="5.19"/>
<rect x="11.67" y="0.62" class="st1" width="33.08" height="4.88"/>
<path id="Forma_1" d="M49.27,4.95h-3.96v-4.2c0-0.41-0.32-0.74-0.73-0.74c0,0,0,0-0.01,0H0.73C0.32,0,0,0.33,0,0.74c0,0,0,0,0,0
	v31.91c-0.01,0.4,0.3,0.74,0.71,0.76c0.4,0.01,0.74-0.3,0.76-0.71c0-0.02,0-0.04,0-0.05V6.43h42.38v7.23c0,0.4,0.32,0.73,0.73,0.73
	s0.73-0.32,0.73-0.73c0,0,0,0,0-0.01v-2.28h3.22v32.14H43.7c-0.41,0-0.74,0.33-0.74,0.74S43.29,45,43.7,45h5.57
	c0.41,0,0.73-0.33,0.73-0.74c0,0,0,0,0,0V5.69C50,5.28,49.67,4.95,49.27,4.95z M10.94,4.95H1.47V1.48h9.47V4.95z M43.85,4.95H12.4
	V1.48h31.45L43.85,4.95L43.85,4.95z M48.54,9.89h-3.22V6.43h3.22V9.89z M44.58,16.12c-0.41,0-0.73,0.33-0.73,0.74c0,0,0,0,0,0v21.71
	H1.46v-2.72c0.01-0.4-0.3-0.74-0.71-0.76c-0.4-0.01-0.74,0.3-0.76,0.71c0,0.02,0,0.04,0,0.05v3.46c0,0.41,0.32,0.74,0.73,0.74h0
	h3.95v4.2c0,0.41,0.32,0.74,0.73,0.74c0,0,0,0,0,0h35.21c0.41,0,0.74-0.33,0.74-0.74s-0.33-0.74-0.74-0.74H6.15v-3.46h38.43
	c0.41,0,0.73-0.33,0.73-0.74c0,0,0,0,0,0V16.86C45.31,16.45,44.99,16.12,44.58,16.12L44.58,16.12z M29.98,29.34H14.36
	c-1.49,0.01-2.69,1.23-2.68,2.72v1.98c-0.01,1.49,1.19,2.71,2.68,2.72h15.62c1.49-0.01,2.69-1.23,2.69-2.72v-1.98
	C32.67,30.57,31.47,29.35,29.98,29.34L29.98,29.34z M31.2,34.04c0,0.68-0.54,1.23-1.22,1.24H14.36c-0.68-0.01-1.22-0.56-1.22-1.24
	v-1.98c0-0.68,0.54-1.23,1.22-1.24h15.62c0.68,0,1.22,0.56,1.22,1.24L31.2,34.04L31.2,34.04z M3.56,2.48
	C3.97,2.47,4.31,2.8,4.32,3.21c0.01,0.41-0.32,0.75-0.73,0.75C3.17,3.96,2.84,3.64,2.83,3.23c0,0,0-0.01,0-0.01
	C2.83,2.81,3.15,2.48,3.56,2.48C3.56,2.47,3.56,2.47,3.56,2.48L3.56,2.48z M9.03,2.48C9.44,2.47,9.78,2.8,9.78,3.21
	c0.01,0.41-0.32,0.75-0.73,0.75C8.64,3.96,8.31,3.64,8.3,3.23c0,0,0-0.01,0-0.01C8.3,2.81,8.62,2.48,9.03,2.48
	C9.03,2.47,9.03,2.47,9.03,2.48L9.03,2.48z M6.3,2.48c0.41,0,0.75,0.32,0.75,0.73c0,0.41-0.32,0.75-0.73,0.75
	c-0.41,0-0.75-0.32-0.75-0.73c0,0,0-0.01,0-0.01C5.56,2.81,5.89,2.48,6.3,2.48C6.3,2.47,6.3,2.47,6.3,2.48L6.3,2.48z M17.52,24.73
	l-4.6-13.05c-0.1-0.29-0.38-0.49-0.69-0.49l0,0c-0.31,0-0.59,0.2-0.69,0.49c-0.01,0.03-1.16,3.26-2.3,6.46
	c-2.34,6.6-2.34,6.66-2.35,6.84c-0.01,0.41,0.32,0.74,0.73,0.75c0,0,0,0,0,0h0.01c0.35,0,0.65-0.25,0.72-0.59
	c0.08-0.27,0.63-1.84,1.37-3.93h5.01l1.42,4.03c0.13,0.38,0.54,0.58,0.93,0.45c0,0,0.01,0,0.01,0
	C17.46,25.54,17.66,25.11,17.52,24.73L17.52,24.73z M10.23,19.72c0.63-1.78,1.34-3.77,1.99-5.6l1.98,5.6H10.23z M19.34,11.18h-0.25
	c-0.41,0-0.74,0.33-0.73,0.74v0v13.05c0,0.41,0.32,0.74,0.73,0.74c0,0,0,0,0,0h0.25c4.02,0,7.27-3.25,7.27-7.27
	C26.61,14.44,23.36,11.18,19.34,11.18L19.34,11.18z M19.82,24.22V12.69c3.18,0.31,5.51,3.15,5.2,6.33
	C24.75,21.77,22.57,23.95,19.82,24.22L19.82,24.22z M32.9,17.46h-1.55c-1.2-0.01-2.16-0.99-2.15-2.18v-0.42
	c-0.01-1.2,0.96-2.17,2.15-2.18h0.92c1.2,0.01,2.16,0.99,2.16,2.18c0,0.4,0.32,0.73,0.73,0.73s0.73-0.32,0.73-0.73c0,0,0,0,0-0.01
	c0.01-2.01-1.61-3.65-3.62-3.67h-0.92c-2.01,0.01-3.63,1.65-3.62,3.67v0.42c-0.01,2.01,1.61,3.65,3.62,3.67h1.55
	c0.85,0.01,1.54,0.7,1.53,1.55v1.57c0.01,1.2-0.96,2.17-2.16,2.18h-0.92c-1.2-0.01-2.16-0.98-2.15-2.18v-0.47
	c0.01-0.4-0.3-0.74-0.71-0.76c-0.4-0.01-0.74,0.3-0.76,0.71c0,0.02,0,0.04,0,0.05v0.47c-0.01,2.01,1.61,3.65,3.62,3.67h0.92
	c2.01-0.02,3.63-1.66,3.62-3.67v-1.57C35.9,18.83,34.56,17.47,32.9,17.46L32.9,17.46z"/>
</svg>
