<?xml version="1.0" encoding="utf-8"?>
<!-- Generator: Adobe Illustrator 22.1.0, SVG Export Plug-In . SVG Version: 6.00 Build 0)  -->
<svg version="1.1" id="Layer_1" xmlns="http://www.w3.org/2000/svg" xmlns:xlink="http://www.w3.org/1999/xlink" x="0px" y="0px"
	 viewBox="0 0 50 45" style="enable-background:new 0 0 50 45;" xml:space="preserve">
<style type="text/css">
	.st0{fill:#A7A9AC;}
	.st1{fill:#3C92CA;}
</style>
<g>
	<g>
		
			<rect id="XMLID_60_" x="-0.43" y="15.1" transform="matrix(0.3244 -0.9459 0.9459 0.3244 -12.2932 19.4383)" class="st0" width="15.77" height="6.45"/>
		<path d="M17.5,11.08l-0.59,0.29c-0.74,0.36-1.6,0.41-2.37,0.14l-0.99-0.35c-0.06-0.04-0.12-0.07-0.18-0.09L7.26,8.98
			C6.8,8.83,6.3,9.07,6.14,9.53L1.02,24.46c-0.08,0.22-0.06,0.47,0.04,0.67c0.1,0.2,0.28,0.37,0.51,0.45l6.1,2.09
			c0.1,0.03,0.19,0.05,0.28,0.05c0.37,0,0.71-0.23,0.84-0.59l4.83-14.06l0.33,0.12c1.22,0.43,2.58,0.35,3.74-0.21l0.59-0.29
			c0.73-0.36,1.59-0.41,2.35-0.15l11.21,3.86c-0.12,0.47-0.35,1.02-0.78,1.32c-0.48,0.33-1.19,0.33-2.12,0.01l-5-1.71
			c-0.23-0.08-0.49-0.06-0.7,0.06c-0.21,0.12-0.37,0.32-0.44,0.55c-0.01,0.03-0.7,2.62-2.91,3.8c-1.39,0.75-3.12,0.78-5.15,0.09
			c-0.46-0.16-0.96,0.09-1.12,0.54s0.09,0.96,0.54,1.12c1.17,0.4,2.27,0.6,3.29,0.6c1.19,0,2.28-0.26,3.27-0.8
			c1.97-1.06,3-2.92,3.46-4.03l4.17,1.43c1.49,0.52,2.73,0.44,3.7-0.23c1.55-1.07,1.62-3.24,1.63-3.34
			c0.01-0.39-0.23-0.73-0.59-0.86l-11.9-4.1C20,10.44,18.65,10.53,17.5,11.08z M7.4,25.71l-4.44-1.52l4.54-13.26l4.44,1.52
			L7.4,25.71z"/>
		
			<rect id="XMLID_142_" x="38.15" y="10.53" transform="matrix(0.8982 -0.4395 0.4395 0.8982 -3.8858 20.0569)" class="st1" width="6.45" height="15.77"/>
		<path d="M40.86,26.71l-2.09,1.93c-1.9,1.74-4.04,3.21-6.35,4.34l-11.1,5.43c-0.49,0.24-1.08,0.04-1.32-0.46
			c-0.24-0.49-0.04-1.08,0.46-1.32l0.14-0.07l0,0l6.07-2.97c0.44-0.21,0.62-0.74,0.41-1.18c-0.21-0.44-0.74-0.62-1.18-0.41
			l-6.07,2.97l0,0l-3.05,1.5c-0.49,0.24-1.08,0.04-1.32-0.46c-0.12-0.23-0.14-0.51-0.05-0.75c0.09-0.25,0.26-0.45,0.5-0.56
			l2.31-1.13l0,0l6.59-3.23c0.44-0.21,0.62-0.74,0.41-1.18c-0.21-0.44-0.74-0.62-1.18-0.41l-6.6,3.24l0,0l-0.25,0.13l-3.15,1.55
			c-0.23,0.12-0.51,0.14-0.75,0.05c-0.25-0.09-0.45-0.26-0.56-0.5c-0.24-0.49-0.04-1.08,0.46-1.32l1.09-0.53l0,0l2.23-1.09l0.62-0.3
			l0,0l5.12-2.51c0.44-0.21,0.62-0.74,0.41-1.18c-0.21-0.44-0.74-0.62-1.18-0.41l-5.54,2.71l-2.42,1.19
			c-0.49,0.23-1.08,0.04-1.32-0.46c-0.12-0.23-0.14-0.51-0.05-0.75c0.09-0.25,0.26-0.45,0.5-0.56l4.23-2.07
			c0.44-0.21,0.62-0.74,0.41-1.18c-0.21-0.44-0.74-0.62-1.18-0.41l-4.23,2.07c-0.66,0.32-1.16,0.89-1.39,1.58
			c-0.23,0.69-0.19,1.44,0.13,2.1c0.2,0.41,0.5,0.75,0.85,1c-0.61,0.81-0.77,1.92-0.29,2.89c0.32,0.66,0.89,1.16,1.58,1.39
			c0.29,0.1,0.58,0.15,0.88,0.15c-0.01,0.44,0.08,0.88,0.28,1.27c0.48,0.97,1.46,1.54,2.47,1.54c0.41,0,0.82-0.09,1.21-0.28
			l0.62-0.3c0.03,0.33,0.12,0.65,0.26,0.96c0.48,0.97,1.46,1.54,2.47,1.54c0.41,0,0.82-0.09,1.21-0.28l11.1-5.43
			c2.47-1.21,4.75-2.76,6.77-4.62l2.48-2.29l5.68-2.78c0.44-0.21,0.62-0.74,0.41-1.18L41.59,9.53c-0.11-0.21-0.28-0.37-0.51-0.45
			C40.86,9,40.62,9.02,40.41,9.12l-5.8,2.83c-0.44,0.21-0.62,0.74-0.41,1.18L40.86,26.71z M40.4,11.09l6.16,12.6l-4.21,2.06
			l-6.16-12.6L40.4,11.09z"/>
	</g>
</g>
</svg>
