<?xml version="1.0" encoding="utf-8"?>
<!-- Generator: Adobe Illustrator 22.1.0, SVG Export Plug-In . SVG Version: 6.00 Build 0)  -->
<svg version="1.1" id="Layer_1" xmlns="http://www.w3.org/2000/svg" xmlns:xlink="http://www.w3.org/1999/xlink" x="0px" y="0px"
	 viewBox="0 0 74.7 45" style="enable-background:new 0 0 74.7 45;" xml:space="preserve">
<style type="text/css">
	.st0{fill:#3C92CA;stroke:#000000;stroke-miterlimit:10;}
</style>
<path class="st0" d="M14,9.5l8.5,1.1l9.6,1.3l3.4,1.6l4.4-4.1L44,8.5l3.8,0.3l1.3,4.3l-1.4,2.4l-10.9,2.2l-7.9-1.1L18.7,17l-6.5,0.1
	l-0.9-4.5C11.3,12.6,11.6,10.7,14,9.5z"/>
<path d="M60.4,18.5c-1.5,0-3,0.3-4.3,0.9l-0.6-1.2c3.6-1.5,7.7-1.3,11.2,0.6c0.5,0.3,1.2,0.1,1.5-0.4c0.3-0.5,0.1-1.2-0.4-1.5
	c0,0,0,0,0,0c-4.1-2.3-9-2.5-13.3-0.6l-1.1-2.1c0.1,0,0.2,0,0.3,0h2.6c0.6,0,1.1-0.5,1.1-1.1V5.9c0-0.6-0.5-1.1-1.1-1.1h-2.6
	c-1.7,0-3.3,0.9-4.1,2.4l-2-3.7C47.4,3.2,47,3,46.6,3h-5.3c-0.6,0-1.1,0.5-1.1,1.1c0,0.6,0.5,1.1,1.1,1.1c0,0,0,0,0.1,0h4.6l1.9,3.5
	c-0.2-0.2-0.5-0.3-0.8-0.5c-1.7-0.9-3.7-0.9-5.5-0.1L38,9.7c-1.2,0.6-2.2,1.5-2.9,2.7c-1-1.1-2.5-1.9-4-2L14.1,8.5
	c-0.9-0.1-1.7,0.2-2.4,0.8c-0.7,0.6-1,1.4-1,2.3v4.9c-0.2,0.1-0.4,0.2-0.6,0.3c-3.9,1.9-6.7,5.5-7.7,9.6c-0.1,0.6,0.2,1.2,0.8,1.3
	c0,0,0,0,0,0c0.6,0.1,1.2-0.2,1.4-0.8c0.9-3.6,3.3-6.5,6.6-8.2c1.2-0.6,2.6-0.9,3.9-0.9h19.6v3.2H23.9c-5-3.8-12.2-2.9-16,2.1
	c-1.2,1.6-2,3.5-2.3,5.6H3c-0.6,0-1.1,0.5-1.1,1.1c0,0,0,0,0,0v3.7c0,0.6,0.5,1.1,1.1,1.1h0h3.6c2.7,5.7,9.6,8.1,15.3,5.4
	c2.4-1.1,4.3-3,5.4-5.4H35c2.4,0,4.4-1.8,4.7-4.2c2.1-0.7,3.9-2.2,4.9-4.2l5.3-10.2c0.3-0.8,0.4-1.6,0.4-2.4l2.1,3.9
	c-2.9,1.8-5,4.5-6.2,7.7c-0.2,0.6,0.1,1.2,0.7,1.4c0,0,0,0,0,0c0.6,0.2,1.2-0.1,1.4-0.7c0.9-2.7,2.7-4.9,5.1-6.5l0.6,1.2
	C51,22.5,49.1,26,49,29.8C49,36.1,54,41.2,60.3,41.3c6.3,0.1,11.5-4.9,11.6-11.2c0.1-6.3-4.9-11.5-11.2-11.6
	C60.5,18.5,60.5,18.5,60.4,18.5z M16.5,15.5h-3.6v-4c0-0.2,0.1-0.5,0.3-0.6c0.2-0.2,0.4-0.2,0.6-0.2l17.1,1.9c1.6,0.2,3,1.3,3.5,2.9
	L16.5,15.5L16.5,15.5z M30.6,23.1l2.9,5.5h-5.3c-0.2-2-1-3.9-2.2-5.5L30.6,23.1L30.6,23.1z M16.9,20.7c4.5,0,8.4,3.3,9.1,7.8H7.8
	C8.5,24.1,12.3,20.7,16.9,20.7L16.9,20.7z M16.9,38.8c-3.2,0-6.1-1.6-7.8-4.3h1.4c2.7,3.5,7.7,4.2,11.3,1.5c0.6-0.4,1.1-0.9,1.5-1.5
	h1.4C23,37.2,20,38.8,16.9,38.8L16.9,38.8z M13.7,34.5H20C18.1,35.7,15.6,35.7,13.7,34.5L13.7,34.5z M35,32.3H4.1v-1.5h33.2
	C36.8,31.7,36,32.3,35,32.3L35,32.3z M42.6,25c-1.2,2.2-3.5,3.6-6,3.6H36l-2.9-5.5h2.5c0.6,0,1.1-0.5,1.1-1.1c0,0,0,0,0,0v-4.3h9.8
	L42.6,25z M47.8,15l-0.2,0.5h-11c0-0.1,0-0.2,0-0.2c0.1-1.5,1-2.9,2.3-3.5l3.5-1.6c1.1-0.5,2.4-0.5,3.5,0.1
	C47.7,11.1,48.5,13.2,47.8,15L47.8,15z M51.2,9.7V9.4c0-1.3,1.1-2.3,2.4-2.3h1.5V12h-1.5C52.3,12,51.3,11,51.2,9.7L51.2,9.7z
	 M56.8,25.4l1.2,2.3c0.2,0.4,0.6,0.6,1,0.6c0.2,0,0.4,0,0.5-0.1c0.5-0.3,0.7-0.9,0.5-1.5c0,0,0,0,0,0l-1.2-2.3
	c0.5-0.2,1.1-0.2,1.7-0.2c3.1,0,5.6,2.6,5.6,5.7c0,3.1-2.6,5.6-5.7,5.6c-3.1,0-5.6-2.6-5.6-5.6C54.7,28.1,55.5,26.5,56.8,25.4
	L56.8,25.4z M60.4,38.8c-5,0-9.1-4-9.2-9c0-2.9,1.5-5.7,3.9-7.4l0.6,1c-2,1.5-3.3,3.8-3.3,6.3c-0.1,4.4,3.5,8,7.9,8.1
	c4.4,0.1,8-3.5,8.1-7.9c0.1-4.4-3.5-8-7.9-8.1c0,0-0.1,0-0.1,0c-0.9,0-1.8,0.2-2.7,0.5l-0.6-1c1-0.4,2.2-0.6,3.3-0.6
	c5-0.1,9.1,3.9,9.2,8.9c0.1,5-3.9,9.1-8.9,9.2C60.7,38.8,60.6,38.8,60.4,38.8L60.4,38.8z M59.4,30.2C59.4,30.2,59.4,30.2,59.4,30.2
	c0.3,0.6,0.9,0.8,1.5,0.6c0.1-0.1,0.2-0.1,0.3-0.2c0.4-0.4,0.4-1.1,0-1.5c0,0,0,0,0,0c-0.4-0.4-1-0.4-1.4-0.1
	C59.4,29.1,59.2,29.7,59.4,30.2C59.4,30.2,59.4,30.2,59.4,30.2L59.4,30.2z"/>
</svg>
