<?xml version="1.0" encoding="utf-8"?>
<!-- Generator: Adobe Illustrator 22.0.1, SVG Export Plug-In . SVG Version: 6.00 Build 0)  -->
<svg version="1.1" id="Layer_1" xmlns="http://www.w3.org/2000/svg" xmlns:xlink="http://www.w3.org/1999/xlink" x="0px" y="0px"
	 viewBox="0 0 600 200" style="enable-background:new 0 0 600 200;" xml:space="preserve">
<style type="text/css">
	.st0{fill:#023F87;}
	.st1{fill:#ED2E2C;}
	.st2{fill:#E5252E;}
	.st3{fill:#37B34A;stroke:#37B34A;stroke-width:5.9516;stroke-miterlimit:10;}
	.st4{display:none;}
	.st5{display:inline;}
	.st6{fill:#023F88;}
	.st7{fill:#023F88;stroke:#023F88;stroke-width:0.5;stroke-miterlimit:10;}
	.st8{display:inline;fill:#39B54A;stroke:#39B54A;stroke-width:3.1539;stroke-miterlimit:10;}
	.st9{display:inline;fill:#1E4384;}
</style>
<g>
	<g id="XMLID_94_">
		<path class="st0" d="M148.9,119.3l-23,0.1l-0.1-15.4c0-4.5-0.3-7.3-0.8-8.4c-0.5-1.1-1.6-1.7-3.3-1.6c-1.9,0-3.1,0.7-3.6,2
			c-0.5,1.3-0.7,4.3-0.7,8.7l0.2,41.1c0,4.3,0.3,7.1,0.8,8.4c0.5,1.3,1.7,2,3.4,2c1.7,0,2.8-0.7,3.4-2c0.5-1.3,0.8-4.4,0.8-9.3
			l0-11.1l23-0.1l0,3.4c0,9.2-0.6,15.6-1.9,19.5c-1.3,3.8-4.1,7.2-8.5,10.1c-4.4,2.9-9.9,4.4-16.3,4.4c-6.7,0-12.3-1.2-16.7-3.6
			c-4.4-2.4-7.3-5.8-8.7-10.1c-1.4-4.3-2.2-10.8-2.2-19.5l-0.1-25.8c0-6.4,0.2-11.1,0.6-14.3c0.4-3.2,1.7-6.3,3.9-9.2
			c2.2-3,5.1-5.3,9-7c3.8-1.7,8.2-2.6,13.2-2.6c6.8,0,12.4,1.3,16.8,3.9c4.4,2.6,7.3,5.9,8.7,9.8c1.4,3.9,2.1,10,2.1,18.2
			L148.9,119.3z"/>
		<path class="st0" d="M159.2,80.8l38.3-0.1l0.1,17.7l-15.3,0.1l0.1,16.8l14.4-0.1l0.1,16.8l-14.4,0.1l0.1,19.4l16.9-0.1l0.1,17.7
			l-39.9,0.2L159.2,80.8z"/>
		<path class="st0" d="M207.9,80.6l16.3-0.1c10.8,0,18.2,0.3,22,1.2c3.8,0.8,7,2.9,9.4,6.4c2.4,3.4,3.7,8.9,3.7,16.4
			c0,6.9-0.8,11.5-2.5,13.9c-1.7,2.4-5.1,3.8-10.1,4.3c4.6,1.1,7.6,2.6,9.2,4.5c1.6,1.9,2.6,3.6,2.9,5.2c0.4,1.6,0.6,5.9,0.6,13.1
			l0.1,23.3l-21.4,0.1l-0.1-29.4c0-4.7-0.4-7.7-1.2-8.8c-0.8-1.1-2.7-1.7-5.9-1.7l0.2,39.9l-23,0.1L207.9,80.6z M231,95.6l0.1,19.7
			c2.6,0,4.4-0.4,5.4-1.1c1-0.7,1.5-3,1.5-6.9l0-4.9c0-2.8-0.5-4.6-1.5-5.5C235.5,96,233.6,95.6,231,95.6z"/>
		<path class="st0" d="M316.7,80.1l0.1,17.7l-13.7,0.1l0.3,70.7l-23,0.1L280.1,98L266.5,98l-0.1-17.7L316.7,80.1z"/>
		<path class="st0" d="M347.2,80l0.3,88.4l-23,0.1l-0.3-88.4L347.2,80z"/>
		<path class="st0" d="M358.6,80l38.9-0.2l0.1,17.7l-15.9,0.1l0.1,16.8l14.2-0.1l0.1,16.8l-14.2,0.1l0.1,37.1l-23,0.1L358.6,80z"/>
		<path class="st0" d="M428.4,79.7l0.3,88.4l-23,0.1l-0.3-88.4L428.4,79.7z"/>
		<path class="st0" d="M439.8,79.7l38.3-0.1l0.1,17.7l-15.3,0.1L463,114l14.4-0.1l0.1,16.8l-14.4,0.1l0.1,19.4l16.9-0.1l0.1,17.7
			l-39.9,0.2L439.8,79.7z"/>
		<path class="st0" d="M488.5,79.5l17.2-0.1c11.1,0,18.6,0.4,22.5,1.4c3.9,1,6.9,2.7,8.9,5c2,2.3,3.3,4.9,3.9,7.8
			c0.5,2.9,0.8,8.5,0.8,16.8l0.1,31c0,7.9-0.3,13.2-1.1,15.9c-0.7,2.7-2,4.8-3.9,6.3c-1.9,1.5-4.1,2.6-6.9,3.2
			c-2.7,0.6-6.8,0.9-12.3,0.9l-29,0.1L488.5,79.5z M511.6,94.5l0.2,58.2c3.3,0,5.3-0.7,6.1-2c0.8-1.3,1.1-4.9,1.1-10.8l-0.1-34.3
			c0-4-0.2-6.6-0.4-7.7c-0.3-1.1-0.8-2-1.8-2.5C515.8,94.8,514.1,94.5,511.6,94.5z"/>
	</g>
	<g id="XMLID_27_">
		<g id="XMLID_91_">
			<path id="XMLID_93_" class="st0" d="M279.5,22.1c33.6-3.7,60.8-22.5,94.9-22.1C387.5,0.2,398,1.2,410,5.5
				c17.5,6.2,31.6,13.6,50.3,13.5c26-0.2,76.8-1.9,92.2,24.6c-16.7-24.9-66.4-21.7-92.2-21.2c-19.2,0.4-33.7-7.1-51.7-13.4
				c-11.5-4-21.6-5.1-34.3-5.5C340.5,2.4,313.2,21,279.5,22.1C291.3,20.8,285.4,21.9,279.5,22.1z"/>
			<path id="XMLID_92_" class="st1" d="M316.8,22l4.1,2.3c0,0,99.8-0.2,133.6,5.5C454.5,29.8,364.7,17.9,316.8,22z"/>
		</g>
		<g id="XMLID_28_">
			<g id="XMLID_60_">
				<path id="XMLID_88_" class="st0" d="M300.8,52.1h-9.6v7.2c0,0.2-0.1,0.2-0.3,0.2h-1.9c-0.2,0-0.3-0.1-0.3-0.2V42
					c0-0.2,0.1-0.3,0.3-0.3h11.7c1,0,2,0.1,2.7,0.3c0.8,0.2,1.4,0.5,1.8,1c0.4,0.4,0.8,1,1,1.8c0.2,0.7,0.4,1.6,0.4,2.7
					C306.8,50.5,304.8,52.1,300.8,52.1z M304.4,46.4c0-0.5-0.1-0.9-0.3-1.2c-0.2-0.3-0.4-0.6-0.8-0.8c-0.3-0.1-0.6-0.2-1-0.3
					c-0.4-0.1-0.9-0.1-1.5-0.1h-9.5v5.7h9.5c1.2,0,2-0.1,2.6-0.4v0c0.4-0.2,0.6-0.5,0.8-0.8c0.2-0.4,0.3-0.8,0.3-1.3V46.4z"/>
				<path id="XMLID_85_" class="st0" d="M321,59.5h-0.2c0,0,0,0,0-0.1l0,0l-2.1-4.1h-11.8l-2.1,4.1v0c0,0,0,0.1,0,0.1h-0.1h-2
					c-0.2,0-0.3-0.1-0.3-0.2v0c0,0,0-0.1,0.1-0.1v0.1l8.8-17.4c0,0,0.1-0.1,0.2-0.1h2.7c0.1,0,0.1,0,0.1,0c0,0,0,0,0,0l8.9,17.4
					v-0.1c0,0,0,0.1,0,0.1v0c0,0.2-0.1,0.2-0.2,0.2H321z M308.1,53.1h9.4l-4.7-9.3L308.1,53.1z"/>
				<path id="XMLID_83_" class="st0" d="M331.6,49.9l11.7,9.3c0,0,0,0,0,0.1c0,0.2-0.1,0.2-0.3,0.2h-2.9L329.5,51h-2.6v8.2
					c0,0.2-0.1,0.2-0.3,0.2h-1.8c-0.2,0-0.3-0.1-0.3-0.2V42c0-0.2,0.1-0.3,0.3-0.3h1.8c0.2,0,0.3,0.1,0.3,0.3v6.9h2.5l10.9-7.1h2.8
					c0.2,0,0.3,0.1,0.3,0.3c0,0,0,0.1,0,0.1L331.6,49.9z"/>
				<path id="XMLID_81_" class="st0" d="M369.3,59.3c0,0.1-0.1,0.2-0.2,0.2h-2.6c-0.1,0-0.2-0.1-0.3-0.4l-5.5-14.4l-5.4,14.4
					c-0.1,0.2-0.2,0.3-0.3,0.3H352c-0.1,0-0.2-0.1-0.3-0.2l-7-17.2V42c0-0.2,0.1-0.3,0.3-0.3h2c0.1,0,0.2,0.1,0.3,0.4l5.9,15l5.8-15
					c0.1-0.3,0.2-0.4,0.3-0.4h2.1c0.1,0,0.2,0.1,0.3,0.4l5.8,15l6-15c0.1-0.3,0.2-0.4,0.3-0.4h2.1c0.1,0,0.2,0.1,0.2,0.3v0.1
					L369.3,59.3z"/>
				<path id="XMLID_79_" class="st0" d="M395.1,59.5c-0.1,0-0.2-0.1-0.2-0.2v-7.7h-14.5v7.7c0,0.2-0.1,0.2-0.3,0.2h-1.8
					c-0.2,0-0.3-0.1-0.3-0.2V42c0-0.2,0.1-0.3,0.3-0.3h1.8c0.2,0,0.3,0.1,0.3,0.3v7.2h14.5V42c0-0.2,0.1-0.3,0.2-0.3h1.8
					c0.1,0,0.2,0.1,0.2,0.3v17.2c0,0.2-0.1,0.2-0.2,0.2H395.1z"/>
				<path id="XMLID_75_" class="st0" d="M399.7,59.5c-0.2,0-0.3-0.1-0.3-0.2V42c0-0.2,0.1-0.3,0.3-0.3h15c0.2,0,0.2,0.1,0.2,0.3v1.8
					c0,0.2-0.1,0.3-0.2,0.3h-13v5.1h12.5c0.1,0,0.2,0.1,0.2,0.3v1.8c0,0.2-0.1,0.3-0.2,0.3h-12.5v5.7h13c0.2,0,0.2,0.1,0.2,0.3v1.8
					c0,0.2-0.1,0.2-0.2,0.2H399.7z"/>
				<path id="XMLID_73_" class="st0" d="M416.5,59.5c-0.2,0-0.3-0.1-0.3-0.2V42c0-0.2,0.1-0.3,0.3-0.3h15c0.1,0,0.2,0.1,0.2,0.3v1.8
					c0,0.2-0.1,0.3-0.2,0.3h-13v5.1H431c0.1,0,0.2,0.1,0.2,0.3v1.8c0,0.2-0.1,0.3-0.2,0.3h-12.5v5.7h13c0.1,0,0.2,0.1,0.2,0.3v1.8
					c0,0.2-0.1,0.2-0.2,0.2H416.5z"/>
				<path id="XMLID_71_" class="st0" d="M433.3,59.5c-0.2,0-0.3-0.1-0.3-0.2V42c0-0.2,0.1-0.3,0.3-0.3h1.8c0.2,0,0.3,0.1,0.3,0.3
					v15.2h12.4c0.2,0,0.2,0.1,0.2,0.3v1.8c0,0.2-0.1,0.2-0.2,0.2H433.3z"/>
				<path id="XMLID_68_" class="st0" d="M467.5,58.4c-0.4,0.4-1,0.6-1.8,0.8c-0.7,0.2-1.6,0.2-2.6,0.2h-8.7c-1.8,0-3.1-0.4-4.1-1.2
					c-1.1-0.9-1.7-2.2-1.7-3.9c0-0.2,0.1-0.3,0.2-0.3h1.8c0.2,0,0.3,0.1,0.3,0.3c0,0.6,0.1,1,0.3,1.4c0.2,0.4,0.5,0.7,0.9,0.9
					c0.3,0.1,0.7,0.3,1.2,0.4c0.5,0.1,1.1,0.1,1.7,0.1h8c0.6,0,1.2,0,1.6-0.1c0.4-0.1,0.8-0.2,1.1-0.4c0.4-0.2,0.6-0.5,0.8-0.9
					c0.1-0.4,0.2-0.9,0.2-1.4c0-1.1-0.5-1.9-1.5-2.3c-0.4-0.2-1-0.3-1.6-0.4c-0.7-0.1-1.5-0.1-2.4-0.1c-0.2,0-0.4,0-0.7,0
					c-0.2,0-0.5,0-0.9,0h-0.4h-0.5c0,0-0.1,0-0.1,0c-0.1,0-0.1,0-0.2,0h-0.4c-0.4,0-0.7,0-1,0c-0.3,0-0.5,0-0.7,0
					c-2.4,0-4.2-0.3-5.4-0.8c-1.6-0.7-2.4-2.1-2.4-4.2c0-3.2,1.8-4.8,5.5-4.8h8.9c4,0,6,1.7,6,5.1c0,0.1-0.1,0.2-0.2,0.2h-1.8
					c-0.1,0-0.2-0.1-0.2-0.2c0-0.5-0.1-1-0.3-1.4c-0.2-0.4-0.5-0.7-0.9-0.9c-0.6-0.3-1.6-0.5-2.9-0.5H454c-0.6,0-1.1,0-1.4,0.1
					c-0.4,0.1-0.7,0.2-0.9,0.4c-0.5,0.3-0.8,1-0.8,2c0,1,0.5,1.7,1.5,2.2c0.9,0.4,2.2,0.5,4,0.5c0.2,0,0.5,0,0.9,0
					c0.4,0,0.9,0,1.4,0c0.1,0,0.1,0,0.2,0c0.1,0,0.1,0,0.2,0h0.4c0.3,0,0.6,0,0.9,0c0.3,0,0.5,0,0.6,0c1.3,0,2.4,0.1,3.3,0.2
					c0.9,0.1,1.7,0.4,2.4,0.6c1.7,0.8,2.5,2.3,2.5,4.3C469,56.2,468.5,57.6,467.5,58.4z"/>
				<path id="XMLID_66_" class="st0" d="M471,59.5c-0.1,0-0.2-0.1-0.2-0.2v-1.6c0-0.1,0.1-0.2,0.2-0.2h1.5c0.1,0,0.2,0.1,0.2,0.2
					v1.6c0,0.2-0.1,0.2-0.2,0.2H471z"/>
				<path id="XMLID_63_" class="st0" d="M495.1,54.2c0,0,0,0.1,0,0.1c0,1.9-0.6,3.3-1.8,4.1c-1,0.7-2.5,1-4.5,1h-6.4
					c-1.2,0-2.3-0.1-3.2-0.2c-0.9-0.2-1.6-0.4-2.2-0.8c-0.5-0.4-1-0.8-1.3-1.3c-0.3-0.5-0.6-1.2-0.7-1.9c-0.2-0.9-0.3-2.7-0.3-5.5
					c0-3.2,0.6-5.3,1.7-6.5h0c1.1-1.1,3.3-1.7,6.4-1.7h5.9c2.1,0,3.7,0.4,4.7,1.3c1.1,0.8,1.6,2.1,1.6,3.8v0.1
					c0,0.2-0.1,0.3-0.2,0.3h-1.8c-0.2,0-0.3-0.1-0.3-0.3v-0.1c0-1.8-1.4-2.8-4.1-2.8h-6.1c-1,0-1.9,0.1-2.6,0.2
					c-0.7,0.1-1.2,0.3-1.6,0.5c-0.7,0.4-1.2,1.2-1.4,2.4c-0.1,0.3-0.1,0.8-0.1,1.6c0,0.7,0,1.7,0,2.8c0,1.2,0.1,2.2,0.2,3
					c0.1,0.8,0.3,1.4,0.6,1.7c0.7,0.7,2.1,1.1,4.4,1.1h6.5c1.3,0,2.3-0.2,2.9-0.5c0.8-0.4,1.1-1.1,1.1-2.3v-0.1
					c0-0.2,0.1-0.3,0.3-0.3h1.8h0c0,0,0,0,0,0L495.1,54.2z"/>
				<path id="XMLID_61_" class="st0" d="M541.1,59.5c-0.2,0-0.3-0.1-0.3-0.2V43.6h-0.5l-9.1,15.8c0,0-0.1,0.1-0.2,0.1h-1.2
					c0,0-0.1,0-0.1,0l-9.1-15.8h-0.5v15.6c0,0.2-0.1,0.2-0.3,0.2h-1.8c-0.2,0-0.3-0.1-0.3-0.2V42c0-0.2,0.1-0.3,0.3-0.3h4
					c0.1,0,0.1,0,0.1,0l8.2,14.5l8.5-14.5c0,0,0.1-0.1,0.2-0.1h3.8c0.1,0,0.2,0.1,0.2,0.3v17.2c0,0.2-0.1,0.2-0.2,0.2H541.1z"/>
			</g>
			<g id="XMLID_29_">
				<path id="XMLID_57_" class="st2" d="M506.3,41.1c-5.3,0-9.6,4.3-9.6,9.6c0,5.3,4.3,9.6,9.6,9.6c5.3,0,9.6-4.3,9.6-9.6
					C515.9,45.4,511.6,41.1,506.3,41.1z M506.3,58.2c-4.2,0-7.5-3.4-7.5-7.5c0-4.2,3.4-7.5,7.5-7.5c4.2,0,7.5,3.4,7.5,7.5
					C513.8,54.9,510.5,58.2,506.3,58.2z"/>
				<path id="XMLID_30_" class="st2" d="M506.3,43.6c-3.9,0-7.2,3.2-7.2,7.1c0,4,3.2,7.2,7.2,7.2c3.9,0,7.2-3.2,7.2-7.2
					C513.5,46.8,510.3,43.6,506.3,43.6z M508.6,49.9c0-0.1,0-0.1-0.1-0.2c1.1-1.9,3.4-2.5,3.7-2.5c0.6,1,0.9,2.2,0.9,3.5
					c0,0.4,0,0.7-0.1,1.1C512.8,50.4,508.9,50,508.6,49.9z M506.6,48.5c0.2,0,0.4,0.2,0.4,0.4c0,0.2-0.2,0.4-0.4,0.4
					c-0.2,0-0.4-0.2-0.4-0.4C506.2,48.7,506.4,48.5,506.6,48.5z M506.3,49.9c0.4,0,0.8,0.3,0.8,0.8c0,0.4-0.3,0.8-0.8,0.8
					c-0.4,0-0.8-0.3-0.8-0.8C505.5,50.3,505.9,49.9,506.3,49.9z M504.9,49.5c0.2,0.1,0.3,0.3,0.3,0.5c-0.1,0.2-0.3,0.3-0.5,0.3
					c-0.2-0.1-0.3-0.3-0.3-0.5C504.4,49.5,504.7,49.4,504.9,49.5z M504.9,52.2c-0.2-0.1-0.2-0.4-0.1-0.5c0.1-0.2,0.4-0.2,0.6-0.1
					c0.2,0.1,0.2,0.4,0.1,0.6C505.3,52.3,505,52.3,504.9,52.2z M506.8,52.4c-0.1-0.2-0.1-0.4,0.1-0.6c0.2-0.1,0.4-0.1,0.6,0.1
					c0.1,0.2,0.1,0.4-0.1,0.6C507.2,52.6,507,52.6,506.8,52.4z M508.1,50.6c-0.2,0.1-0.4,0-0.5-0.2c-0.1-0.2,0-0.4,0.2-0.5
					c0.2-0.1,0.4,0,0.5,0.2C508.4,50.3,508.3,50.6,508.1,50.6z M511.9,46.7c-1.2-0.7-4.5,1.8-4.5,1.8l0,0c0,0,0,0,0,0
					c-0.4-2.1,1-4,1.2-4.4C510,44.7,511.1,45.6,511.9,46.7z M508.1,44c-1.3,0.4-2.2,4.3-2.2,4.3l0.1,0c-0.1,0-0.3,0-0.4,0.1l0,0
					c-1.8-1.2-2.2-3.4-2.3-3.9c0.9-0.5,1.9-0.7,3-0.7C506.9,43.8,507.5,43.9,508.1,44z M502.7,44.8c-0.6,1.3,1.6,4.5,1.6,4.5
					l0.1-0.1c-0.1,0.1-0.2,0.2-0.2,0.4l0,0c-2.1,0.5-4-0.7-4.4-1C500.3,47,501.3,45.7,502.7,44.8z M499.6,49.2c0.5,1.3,4.3,2,4.3,2
					l0-0.1c0,0.1,0.1,0.2,0.1,0.4c-1.1,1.8-3.4,2.4-3.8,2.5c-0.5-1-0.8-2.1-0.8-3.2C499.4,50.2,499.5,49.7,499.6,49.2z M500.5,54.4
					c1.2,0.6,4.3-1.6,4.5-1.7c0.1,0.1,0.2,0.1,0.3,0.2c0.5,2.2-0.8,4.2-0.9,4.4C502.8,56.9,501.4,55.8,500.5,54.4z M504.9,57.5
					c1.3-0.3,1.9-3.9,2-4.4c0.1,0,0.2-0.1,0.4-0.1c2,1.2,2.6,3.7,2.6,3.7l0.2-0.1c-1.1,0.7-2.4,1.1-3.7,1.1
					C505.8,57.6,505.4,57.5,504.9,57.5z M510.2,56.4c0.8-1.1-1.5-4.1-1.8-4.5c0.1-0.1,0.1-0.2,0.2-0.3c2.2-0.6,4.4,0.7,4.5,0.7
					C512.6,54,511.6,55.4,510.2,56.4z"/>
			</g>
		</g>
	</g>
	<path id="XMLID_26_" class="st3" d="M4.9,111.6l16,25.1c0,0,63.4-61.9,83.9-66.8c0,0-45,30.1-84.5,93C20.3,163,7.5,125,4.9,111.6z"
		/>
	<path id="XMLID_21_" class="st0" d="M55.9,199.6c-6,0-11.8-2.5-15.8-6.9c-3.9-4.3-5.9-9.8-5.4-15.5l1.5-17.9l8.9-11.1L43.6,178
		c-0.3,3.2,0.8,6.3,3,8.7c2.3,2.5,5.7,4,9.2,4h513.7c6.4,0,11.7-4.8,12.2-10.8L591,68.1c0.3-3.2-0.8-6.3-3-8.7c-2.3-2.5-5.7-4-9.2-4
		h-14.6l-0.2-9h14.8c6,0,11.8,2.5,15.8,6.9c3.9,4.3,5.9,9.8,5.4,15.5l-9.2,111.7c-0.9,10.7-10.2,19.1-21.2,19.1H55.9z"/>
	<path id="XMLID_20_" class="st0" d="M55.9,197.9c-5.5,0-10.8-2.3-14.5-6.3c-3.6-3.9-5.4-9-4.9-14.2l1.4-17.4l5.2-6.4l-1.2,24.4
		c-0.3,3.6,0.9,7.2,3.5,9.9c2.7,2.9,6.5,4.6,10.5,4.6h513.7c7.3,0,13.4-5.5,14-12.5l9.2-111.7c0.3-3.7-0.9-7.3-3.5-10.1
		c-2.7-2.9-6.5-4.6-10.5-4.6h-12.9l-0.1-5.5h13c5.5,0,10.8,2.3,14.5,6.3c3.6,3.9,5.4,9,4.9,14.2L589,180.4
		c-0.8,9.8-9.4,17.5-19.5,17.5H55.9z"/>
	<path id="XMLID_14_" class="st0" d="M43.9,65.4c0.9-10.7,10.2-19.1,21.2-19.1h203.7l-0.1,9H65.1c-6.4,0-11.7,4.8-12.2,10.8
		l-1.7,20.4l-8.9,10.6L43.9,65.4z"/>
	<path id="XMLID_2_" class="st0" d="M45.6,65.5c0.8-9.7,9.3-17.4,19.4-17.4H267l-0.1,5.5H65.1c-7.3,0-13.4,5.5-14,12.5l-1.6,19.8
		l-5.2,6.2L45.6,65.5z"/>
</g>
<g class="st4">
	<g id="XMLID_169_" class="st5">
		<path id="XMLID_170_" class="st6" d="M117,109.3l8.6,64.7h-15.2l-0.9-11.5H104l-0.9,11.5H87.7l7.8-64.7H117z M109.2,150.7
			c-0.9-7.2-1.4-16.4-2.3-27c-1.4,12.4-2.6,21.6-2.9,27C104,150.7,109.2,150.7,109.2,150.7z"/>
		<path id="XMLID_173_" class="st6" d="M162.1,109.3v43.1c0,4.9,0,8.3-0.3,10.3c-0.3,2-1.1,4-2.6,6c-1.4,2-3.2,3.7-5.5,4.9
			c-2.3,1.1-4.9,1.7-8,1.7c-3.4,0-6.6-0.6-9.2-2c-2.6-1.1-4.6-2.9-6-4.9c-1.4-2-2-4.3-2.3-6.6c-0.3-2.3-0.3-7.2-0.3-14.4v-38.2h14.9
			v48.6c0,2.9,0,4.6,0.3,5.5c0.3,0.9,0.9,1.1,1.7,1.1s1.4-0.6,1.7-1.4c0.3-0.9,0.3-2.9,0.3-6v-47.7H162.1z"/>
		<path id="XMLID_175_" class="st6" d="M202.9,137.5H188v-11.2c0-3.2-0.3-5.2-0.6-6s-1.1-1.1-2-1.1c-1.1,0-2,0.6-2.3,1.4
			c-0.3,0.9-0.6,3.2-0.6,6.3v29.9c0,3.2,0.3,5.2,0.6,6c0.3,0.9,1.1,1.4,2.3,1.4c1.1,0,1.7-0.6,2.3-1.4c0.6-0.9,0.6-3.2,0.6-6.9v-8
			h14.9v2.6c0,6.6-0.3,11.5-1.1,14.4c-0.9,2.9-2.6,5.2-5.5,7.5c-2.9,2-6.3,3.2-10.6,3.2s-8-0.9-10.9-2.6c-2.9-1.7-4.6-4.3-5.7-7.5
			c-0.9-3.2-1.4-7.8-1.4-14.4v-19c0-4.6,0-8,0.3-10.3s1.1-4.6,2.6-6.6c1.4-2.3,3.4-3.7,5.7-5.2c2.6-1.1,5.5-1.7,8.6-1.7
			c4.3,0,8,0.9,10.9,2.9c2.9,2,4.9,4.3,5.7,7.2c0.9,2.9,1.4,7.2,1.4,13.2v6H202.9z"/>
		<path id="XMLID_177_" class="st6" d="M238.5,109.3v12.9h-8.9V174h-14.9v-51.7h-8.9v-12.9H238.5z"/>
		<path id="XMLID_179_" class="st6" d="M256.9,109.3V174H242v-64.7H256.9z"/>
		<path id="XMLID_181_" class="st6" d="M297.2,147c0,6.6,0,11.2-0.3,13.8c-0.3,2.6-1.1,5.2-2.6,7.5c-1.4,2.3-3.4,4-5.7,5.2
			c-2.3,1.1-5.2,1.7-8.6,1.7c-3.2,0-5.7-0.6-8.3-1.7c-2.6-1.1-4.3-2.9-6-5.2c-1.4-2.3-2.3-4.6-2.6-7.5c-0.3-2.3-0.6-7.2-0.6-13.8
			v-10.9c0-6.6,0-11.2,0.3-13.8c0.3-2.6,1.1-5.2,2.6-7.5s3.4-4,5.7-5.2c2.3-1.1,5.2-1.7,8.6-1.7c3.2,0,5.7,0.6,8.3,1.7
			c2.6,1.1,4.3,2.9,6,5.2s2.3,4.6,2.6,7.5c0.3,2.9,0.3,7.2,0.3,14.1V147H297.2z M282.2,125.7c0-2.9-0.3-4.9-0.6-5.7
			c-0.3-0.9-0.9-1.1-1.7-1.1s-1.4,0.3-1.7,1.1c-0.3,0.6-0.6,2.6-0.6,6v30.2c0,3.7,0,6,0.3,6.9c0.3,0.9,0.9,1.4,2,1.4
			c1.1,0,1.7-0.6,2-1.4c0.3-1.1,0.3-3.4,0.3-7.2V125.7z"/>
		<path id="XMLID_184_" class="st6" d="M336.2,109.3V174H323l-7.8-29.3V174h-12.6v-64.7h12.6l8.3,29v-29H336.2z"/>
		<path id="XMLID_186_" class="st6" d="M386.8,128.9H373V124c0-2.3-0.3-3.7-0.6-4.3c-0.3-0.6-0.9-0.9-1.7-0.9s-1.7,0.3-2,1.1
			c-0.3,0.9-0.6,2-0.6,3.7c0,2.3,0.3,3.7,0.9,4.9c0.6,1.1,2,2.3,4.3,4c6.6,4.3,10.9,8,12.6,10.9c1.7,2.9,2.6,7.5,2.6,13.8
			c0,4.6-0.6,8-1.4,10.1c-0.9,2.3-2.9,4-5.5,5.5c-2.9,1.4-6,2.3-9.5,2.3c-4,0-7.5-0.9-10.3-2.6c-2.9-1.7-4.6-3.7-5.5-6.6
			c-0.9-2.6-1.4-6.3-1.4-11.2v-4.3h13.8v8c0,2.3,0.3,4,0.6,4.6s1.1,1.1,2,1.1c0.9,0,1.7-0.6,2.3-1.4s0.9-2.3,0.9-4
			c0-3.7-0.6-6.3-1.4-7.5c-0.9-1.1-3.2-3.2-6.9-5.7c-3.7-2.9-6.3-4.9-7.5-6c-1.1-1.1-2.3-2.9-2.9-5.2c-0.9-2.3-1.1-5.2-1.1-8.3
			c0-4.9,0.6-8.6,1.7-10.9c1.1-2.3,2.9-4,5.5-5.5c2.6-1.1,5.5-2,9.2-2c4,0,7.2,0.6,10.1,2c2.9,1.4,4.6,3.2,5.5,5.5
			c0.9,2,1.4,5.7,1.4,10.9v2.9H386.8z"/>
		<path id="XMLID_188_" class="st6" d="M427,109.3V174h-14.9v-27h-4.6v27h-14.9v-64.7h14.9v23h4.6v-23H427z"/>
		<path id="XMLID_190_" class="st6" d="M433.1,109.3h25v12.9H448v12.4h9.5V147H448v14.1h10.9V174h-25.9V109.3z"/>
		<path id="XMLID_192_" class="st6" d="M463.2,109.3h25v12.9h-10.1v12.4h9.5V147h-9.5v14.1h10.9V174h-25.9V109.3z"/>
		<path id="XMLID_194_" class="st6" d="M522.7,109.3v12.9h-8.9V174h-14.9v-51.7H490v-12.9H522.7z"/>
	</g>
	<g id="XMLID_3_" class="st5">
		<g id="XMLID_328_">
			<path id="XMLID_345_" class="st7" d="M110.7,60.2l-6.9,42.2h-6.6l-6.9-42.2h5.5l4.6,32.2l4.6-32.2H110.7z"/>
			<path id="XMLID_343_" class="st7" d="M113.2,102.4V60.2h14.1v5.2h-8.6V78h7.5v5.2h-7.5v14.1h8.6v5.2H113.2z"/>
			<path id="XMLID_340_" class="st7" d="M131.3,60.2h11.2c4.3,0,6.6,2.3,6.6,7.2v10.3c0,3.7-1.1,6-3.4,6.9l4,17.5h-5.5l-3.7-17h-3.4
				v17h-5.7V60.2z M136.8,80.6h3.7c1.7,0,2.6-1.1,2.6-3.2v-9.2c0-2-0.9-3.2-2.6-3.2h-3.7V80.6z"/>
			<path id="XMLID_338_" class="st7" d="M153.5,102.4V60.2h5.7v42.2H153.5z"/>
			<path id="XMLID_336_" class="st7" d="M177.6,78v5.2h-7.5v19.3h-5.7V60.2h14.1v5.2h-8.3V78H177.6z"/>
			<path id="XMLID_334_" class="st7" d="M182.2,102.4V60.2h5.7v42.2H182.2z"/>
			<path id="XMLID_332_" class="st7" d="M193.1,102.4V60.2h14.1v5.2h-8.3V78h7.5v5.2h-7.5v14.1h8.3v5.2H193.1z"/>
			<path id="XMLID_329_" class="st7" d="M211.2,102.4V60.2h9.8c5.2,0,8,2.6,8,8v28.2c0,4-2.3,6-6.9,6
				C222.2,102.4,211.2,102.4,211.2,102.4z M217,97.3h4.3c1.4,0,2.3-0.6,2.3-2v-27c0-2-0.9-3.2-2.6-3.2h-4V97.3z"/>
		</g>
	</g>
	<path id="XMLID_1_" class="st8" d="M25.6,48.1l17,22.7c0,0,55.7-63.5,75-69.5c0,0-40.5,31.9-73.6,94.5C44,95.8,29,60.8,25.6,48.1z"
		/>
	<path id="XMLID_6_" class="st9" d="M512.4,34.1h-404l-6.3,8.6h401.7c32.8,0,40.5,16.1,40.5,40.5v66.7c0,22.4-9.5,40.5-40.5,40.5
		H89.4c-31,0-40.5-18.1-40.5-40.5v-35.1l-8.6,11.8v31.9c0,22.4,18.1,40.5,40.5,40.5h431.6c22.4,0,40.5-18.1,40.5-40.5V74.6
		C552.9,52.2,534.5,34.1,512.4,34.1z"/>
</g>
</svg>
