<?xml version="1.0" encoding="utf-8"?>
<!-- Generator: Adobe Illustrator 22.1.0, SVG Export Plug-In . SVG Version: 6.00 Build 0)  -->
<svg version="1.1" baseProfile="tiny" id="Layer_1" xmlns="http://www.w3.org/2000/svg" xmlns:xlink="http://www.w3.org/1999/xlink"
	 x="0px" y="0px" viewBox="0 0 170.43 106.5" xml:space="preserve">
<g transform="translate(-3 -3)">
	<path id="Forma_1" fill="#4691E1" d="M137.15,42.35c-0.64-0.76-1.58-1.2-2.58-1.2h-12.64c-3.13-8.06-7.18-15.95-11.8-18.93
		c-15.98-10.3-58.37-10.3-74.35,0c-4.63,2.98-8.67,10.88-11.81,18.93H11.34c-0.99,0-1.94,0.44-2.58,1.2
		c-0.63,0.75-0.88,1.75-0.68,2.72l1.87,8.88c0.33,1.53,1.69,2.61,3.26,2.6h3.75c-3.48,3.97-5.4,9.08-5.39,14.36
		c-0.12,6.14,2.41,12.03,6.95,16.16c0.05,0.04,0.1,0.07,0.15,0.11v12.43c0.03,2.73,2.26,4.91,4.99,4.88h11.66
		c2.73,0.03,4.96-2.16,4.99-4.88v-5h65.32v5c0.03,2.73,2.26,4.91,4.99,4.88h11.66c2.72,0.02,4.96-2.16,4.99-4.88V87.43
		c8.86-8.16,9.51-21.93,1.45-30.89h4c1.56,0.02,2.92-1.07,3.26-2.6l1.88-8.88C138.03,44.1,137.78,43.1,137.15,42.35z M41.26,30.38
		c12.74-8.2,50.65-8.2,63.38,0c2.47,1.59,5.66,8.01,8.57,15.88H32.7C35.6,38.39,38.79,31.97,41.26,30.38z M26.34,72.13
		c-0.12-5.42,4.19-9.91,9.61-10.02c5.42-0.12,9.91,4.19,10.02,9.61c0.12,5.42-4.19,9.91-9.61,10.02c-0.07,0-0.14,0-0.21,0
		C30.79,81.8,26.4,77.5,26.34,72.13z M109.88,81.74c-5.31-0.11-9.52-4.51-9.4-9.81c0.11-5.31,4.51-9.52,9.81-9.4
		c5.23,0.11,9.4,4.38,9.4,9.61C119.64,77.5,115.25,81.8,109.88,81.74L109.88,81.74z"/>
</g>
<g transform="translate(-3 -3)">
	<path id="Forma_1_1_" fill="#FFFFFF" stroke="#4691E1" stroke-width="6" stroke-linejoin="round" d="M134.15,39.35
		c-0.64-0.76-1.58-1.2-2.58-1.2h-12.64c-3.13-8.06-7.18-15.95-11.8-18.93c-15.98-10.3-58.37-10.3-74.35,0
		c-4.63,2.98-8.67,10.88-11.81,18.93H8.34c-0.99,0-1.94,0.44-2.58,1.2c-0.63,0.75-0.88,1.75-0.68,2.72l1.87,8.88
		c0.33,1.53,1.69,2.61,3.26,2.6h3.75c-3.48,3.97-5.4,9.08-5.39,14.36c-0.12,6.14,2.41,12.03,6.95,16.16
		c0.05,0.04,0.1,0.07,0.15,0.11v12.43c0.03,2.73,2.26,4.91,4.99,4.88h11.66c2.73,0.03,4.96-2.16,4.99-4.88v-5h65.32v5
		c0.03,2.73,2.26,4.91,4.99,4.88h11.66c2.72,0.02,4.96-2.16,4.99-4.88V84.43c8.86-8.16,9.51-21.93,1.45-30.89h4
		c1.56,0.02,2.92-1.07,3.26-2.6l1.88-8.88C135.03,41.1,134.78,40.1,134.15,39.35z M38.26,27.38c12.74-8.2,50.65-8.2,63.38,0
		c2.47,1.59,5.66,8.01,8.57,15.88H29.7C32.6,35.39,35.79,28.97,38.26,27.38z M23.34,69.13c-0.12-5.42,4.19-9.91,9.61-10.02
		c5.42-0.12,9.91,4.19,10.02,9.61c0.12,5.42-4.19,9.91-9.61,10.02c-0.07,0-0.14,0-0.21,0C27.79,78.8,23.4,74.5,23.34,69.13z
		 M106.88,78.74c-5.31-0.11-9.52-4.51-9.4-9.81c0.11-5.31,4.51-9.52,9.81-9.4c5.23,0.11,9.4,4.38,9.4,9.61
		C116.64,74.5,112.25,78.8,106.88,78.74L106.88,78.74z"/>
</g>
<g>
	<path id="Rounded_Rectangle_1272" fill="#FFFFFF" d="M79.37,10.37h61.7c12.08,0,21.87,9.79,21.87,21.87v0.01
		c0,12.08-9.79,21.87-21.87,21.87h-61.7c-12.08,0-21.87-9.79-21.87-21.87v-0.01C57.5,20.16,67.29,10.37,79.37,10.37z"/>
</g>
<g>
	<path id="Rounded_Rectangle_1272_1_" fill="none" stroke="#4691E1" stroke-width="6" stroke-linejoin="round" d="M79.37,10.37h61.7
		c12.08,0,21.87,9.79,21.87,21.87v0.01c0,12.08-9.79,21.87-21.87,21.87h-61.7c-12.08,0-21.87-9.79-21.87-21.87v-0.01
		C57.5,20.16,67.29,10.37,79.37,10.37z"/>
</g>
<text transform="matrix(1 0 0 1 78.9883 43.5684)" fill="#4691E1" font-family="'Roboto-Medium'" font-size="32.0355px">8/10</text>
<path fill="#ACD1F7" d="M39.17,30.67c-0.54-0.56,9.08-7.04,16.4-5.54c0,0-2.06,8.88,0.44,15.38H33.62
	C33.62,40.5,36.62,32.62,39.17,30.67z"/>
</svg>
