<svg id="Layer_1" data-name="Layer 1" xmlns="http://www.w3.org/2000/svg" viewBox="0 0 144 144"><defs><style>.cls-1{fill:#4e4d4d;}</style></defs><title>scooter</title><path class="cls-1" d="M43.83,75.55A11.62,11.62,0,1,0,55.45,87.17,11.63,11.63,0,0,0,43.83,75.55Zm0,20.49a8.87,8.87,0,1,1,8.87-8.87A8.88,8.88,0,0,1,43.83,96Zm0-15a6.12,6.12,0,1,0,6.11,6.12A6.12,6.12,0,0,0,43.83,81.05Zm0,9.48a3.36,3.36,0,1,1,3.36-3.36A3.37,3.37,0,0,1,43.83,90.53Zm59.26-15a11.62,11.62,0,1,0,11.62,11.62A11.63,11.63,0,0,0,103.09,75.55Zm0,20.49A8.87,8.87,0,1,1,112,87.17,8.88,8.88,0,0,1,103.09,96Zm0-15a6.12,6.12,0,1,0,6.12,6.12A6.12,6.12,0,0,0,103.09,81.05Zm0,9.48a3.36,3.36,0,1,1,3.36-3.36A3.37,3.37,0,0,1,103.09,90.53Zm0-17.73a1.38,1.38,0,0,0,1.27-1.92c-.17-.38-3.94-9-14.24-15.64l3.1-3.11a1.37,1.37,0,0,0,.31-1.44c-.09-.25-2.38-6.09-13.77-6.75a1.43,1.43,0,0,0-1.17.53,1.41,1.41,0,0,0-.22,1.27l1.16,3.61H75.41a1.38,1.38,0,1,0,0,2.75h5s4,12.14,5.93,18.46c-1.93,3.77-4.63,9.35-5.61,11.38H73.88L68.46,70.13l2-2.1a1.38,1.38,0,0,0,.39-1,6.61,6.61,0,0,0-6.5-6.6L41.54,57.18l-.2,0a6.62,6.62,0,0,0-6.6,6.61,1.39,1.39,0,0,0,.17.67l1,1.84-6.28,6.58a1.38,1.38,0,1,0,2,1.9l5.7-6,.85,1.53a1.4,1.4,0,0,0,1.2.7h7.78L56.5,76.8l6.34,13.81a1.36,1.36,0,0,0,1.25.8H87.61a1.38,1.38,0,0,0,1.06-.49A1.36,1.36,0,0,0,89,89.79a14.68,14.68,0,0,1-.24-2.62A14.38,14.38,0,0,1,103.09,72.8ZM90.52,50.94,87.43,54h-3.5l-2.3-7.17C87.33,47.61,89.67,49.8,90.52,50.94Zm-53,12.49a3.86,3.86,0,0,1,3.75-3.51L64.07,63.2l.19,0a3.85,3.85,0,0,1,3.82,3.33l-1.64,1.71H40.22ZM86,88.66H65L58.83,75.27a1.35,1.35,0,0,0-.52-.59L52.41,71H65.84l1.23,2.69H65a1.38,1.38,0,1,0,0,2.75h3.39l1.26,2.75H67.08a1.38,1.38,0,0,0,0,2.75h3.78l.89,1.93a1.36,1.36,0,0,0,1.25.8H86.15A17.14,17.14,0,0,0,86,87.17C86,87.66,86,88.16,86,88.66Zm.76-6.72h-3c1.29-2.66,3.62-7.45,5.25-10.61a1.37,1.37,0,0,0,.1-1c-2-6.47-3.26-10.38-4.3-13.5h2.59a39,39,0,0,1,9.84,8.31H92.85a1.38,1.38,0,1,0,0,2.75H99.4c.62.89,1.12,1.67,1.49,2.31A17.18,17.18,0,0,0,86.79,81.94Z"/></svg>