<?xml version="1.0" encoding="utf-8"?>
<!-- Generator: Adobe Illustrator 22.1.0, SVG Export Plug-In . SVG Version: 6.00 Build 0)  -->
<svg version="1.1" id="Layer_1" xmlns="http://www.w3.org/2000/svg" xmlns:xlink="http://www.w3.org/1999/xlink" x="0px" y="0px"
	 viewBox="0 0 64.5 45" style="enable-background:new 0 0 64.5 45;" xml:space="preserve">
<style type="text/css">
	.st0{fill:#B8D3FF;}
	.st1{filter:url(#Adobe_OpacityMaskFilter);}
	.st2{fill:#FFFFFF;}
	.st3{mask:url(#mask-2_1_);fill:#4A90E2;}
	.st4{fill:#D0021B;}
</style>
<title>Used Calculater</title>
<ellipse class="st0" cx="12.4" cy="7.8" rx="6.9" ry="3"/>
<g id="Page-1">
	<g id="Desktop-HD-Copy" transform="translate(-989.000000, -355.000000)">
		<g id="Group-3" transform="translate(989.000000, 355.000000)">
			<g id="Clip-2">
			</g>
			<defs>
				<filter id="Adobe_OpacityMaskFilter" filterUnits="userSpaceOnUse" x="2.1" y="3" width="50" height="40.3">
					<feColorMatrix  type="matrix" values="1 0 0 0 0  0 1 0 0 0  0 0 1 0 0  0 0 0 1 0"/>
				</filter>
			</defs>
			<mask maskUnits="userSpaceOnUse" x="2.1" y="3" width="50" height="40.3" id="mask-2_1_">
				<g class="st1">
					<polygon id="path-1_1_" class="st2" points="2.1,3 52.1,3 52.1,43.3 2.1,43.3 					"/>
				</g>
			</mask>
			<path id="Fill-1" class="st3" d="M20,20.8c-1.4,1.5-4.3,2.4-7.6,2.4s-6.2-0.9-7.6-2.4c-0.5-0.5-0.5-1.3,0-1.7
				c0.5-0.5,1.2-0.5,1.7,0c0.7,0.8,2.9,1.6,5.9,1.6c3,0,5.2-0.8,5.9-1.6c0.5-0.5,1.2-0.5,1.7,0C20.5,19.6,20.5,20.3,20,20.8
				 M23.2,37.5c0,0.7-0.5,1.2-1.2,1.2s-1.2-0.5-1.2-1.2s0.5-1.2,1.2-1.2h0C22.6,36.3,23.2,36.8,23.2,37.5 M44,40.8
				c-1.8,0-3.3-1.5-3.3-3.3c0-1.8,1.5-3.3,3.3-3.3c1.8,0,3.3,1.5,3.3,3.3c0,0,0,0,0,0C47.2,39.4,45.8,40.8,44,40.8 M48.3,23
				c-0.3-0.3-0.7-0.6-1.1-1c-0.3-0.2-0.5-0.5-0.8-0.8c-0.4-0.4-0.9-0.9-1.4-1.3c-0.4-0.3-0.8-0.6-1.1-0.9c-4.5-3.8-6.3-5.4-11-5.4
				h-8.3c-0.7,0-1.2,0.5-1.2,1.2s0.5,1.2,1.2,1.2H33c3.8,0,5,1,9.4,4.8c0.4,0.3,0.7,0.6,1.1,0.9c0.4,0.4,0.9,0.8,1.3,1.2
				c0.3,0.3,0.6,0.6,0.9,0.8c0.4,0.4,0.8,0.7,1.1,1c0.6,0.6,1.1,1,1.5,1.4H31.2c-0.3-0.1-1.2-0.7-3-2.5c-1.4-1.4-2.4-2.6-2.6-2.9
				c-0.3-0.6-1-0.9-1.6-0.6c-0.6,0.3-0.9,1-0.7,1.6c0.3,0.8,2.2,2.8,3.2,3.8c3.1,3.1,4.1,3.1,4.5,3.1h18.5c0,0.3,0,0.7,0.1,1.1
				c0,0.6,0,2,0,3l0,0.6c0,0.6,0,1.2,0,2c0,0.2-0.1,0.4-0.2,0.5c-0.7-2.4-2.9-4.1-5.4-4.1c-3.1,0-5.7,2.6-5.7,5.7
				c0,3.2,2.5,5.7,5.7,5.7c2.8,0,5.1-2,5.6-4.7c1.5-0.5,2.5-1.7,2.5-3.2c0-0.8,0-1.4,0-2l0-0.6c0-1.1,0-2.4,0-3.1
				C52,26.3,51.2,25.6,48.3,23z M10.6,30.3c0,0.7-0.5,1.2-1.2,1.2H3.3c-0.7,0-1.2-0.5-1.2-1.2c0-0.7,0.5-1.2,1.2-1.2h6.1
				C10.1,29.1,10.6,29.7,10.6,30.3 M22,40.8c-1.8,0-3.3-1.5-3.3-3.3c0,0,0,0,0,0c0-1.8,1.5-3.3,3.3-3.3c1.8,0,3.3,1.5,3.3,3.3
				C25.2,39.3,23.8,40.8,22,40.8 M34.5,36.3h-7c-0.6-2.6-2.8-4.5-5.6-4.5c-2.6,0-4.7,1.7-5.4,4.1c-0.1-0.1-0.1-0.2-0.2-0.2
				c0-0.1-0.1-0.2-0.1-0.3v-8.1c0-0.7-0.5-1.2-1.2-1.2s-1.2,0.5-1.2,1.2v8.1c0,0.5,0.1,0.9,0.3,1.4c0.4,0.9,1.2,1.5,2.2,1.8
				c0.5,2.7,2.8,4.7,5.6,4.7c2.7,0,5-1.9,5.6-4.5h7c0.7,0,1.2-0.5,1.2-1.2S35.1,36.3,34.5,36.3 M20,13.4c0.5,0.5,0.5,1.2,0,1.7
				c-1.4,1.5-4.3,2.4-7.6,2.4s-6.2-0.9-7.6-2.4c-0.5-0.5-0.5-1.3,0-1.7C5.3,13,6,13,6.5,13.5c0.7,0.8,2.9,1.6,5.9,1.6
				c3,0,5.2-0.8,5.9-1.6C18.8,13,19.5,13,20,13.4 M21.1,26.3h1.4c0.7,0,1.2,0.5,1.2,1.2s-0.5,1.2-1.2,1.2h-1.4
				c-0.7,0-1.2-0.5-1.2-1.2S20.4,26.3,21.1,26.3 M45.2,37.5c0,0.7-0.5,1.2-1.2,1.2h0c-0.7,0-1.2-0.5-1.2-1.2s0.5-1.2,1.2-1.2
				S45.2,36.8,45.2,37.5 M10.6,34.7c0,0.7-0.5,1.2-1.2,1.2H6.7c-0.7,0-1.2-0.5-1.2-1.2s0.5-1.2,1.2-1.2h2.7
				C10.1,33.5,10.6,34,10.6,34.7 M12.4,5.4c3.8,0,6.2,1.4,6.2,2.1s-2.4,2.1-6.2,2.1S6.2,8.2,6.2,7.5S8.6,5.4,12.4,5.4 M6.7,10.9
				c1.5,0.7,3.6,1.1,5.7,1.1c2.1,0,4.2-0.4,5.7-1.1C20.6,9.8,21,8.3,21,7.5S20.6,5.2,18.1,4C16.6,3.4,14.5,3,12.4,3
				C10.3,3,8.2,3.4,6.7,4C4.2,5.2,3.8,6.7,3.8,7.5C3.8,8.3,4.2,9.8,6.7,10.9"/>
		</g>
	</g>
</g>
<rect x="30" y="12.8" class="st2" width="19.3" height="7.9"/>
<g id="Page-1_1_">
	<g id="Desktop-HD-Copy_1_" transform="translate(-1018.000000, -355.000000)">
		<path id="Combined-Shape" class="st4" d="M1046.4,365.8h20.8c1.2,0,2.1,0.9,2.1,2.1v7.6c0,1.2-0.9,2.1-2.1,2.1h-20.8
			c-1.2,0-2.1-0.9-2.1-2.1v-7.6C1044.3,366.7,1045.2,365.8,1046.4,365.8z M1052.7,370.2l0.3-0.6c-0.2-0.2-0.5-0.4-0.8-0.5
			c-0.3-0.1-0.7-0.2-1.1-0.2c-0.3,0-0.6,0.1-0.9,0.2c-0.3,0.1-0.5,0.2-0.7,0.4c-0.2,0.2-0.3,0.4-0.4,0.6c-0.1,0.2-0.1,0.5-0.1,0.7
			c0,0.3,0,0.5,0.1,0.8c0.1,0.2,0.2,0.4,0.3,0.5c0.1,0.1,0.3,0.2,0.5,0.3c0.2,0.1,0.4,0.2,0.6,0.2c0.2,0.1,0.4,0.1,0.6,0.2
			c0.2,0.1,0.3,0.1,0.5,0.2s0.3,0.2,0.3,0.3c0.1,0.1,0.1,0.2,0.1,0.4c0,0.3-0.1,0.5-0.3,0.7s-0.5,0.2-0.8,0.2c-0.2,0-0.4,0-0.6-0.1
			c-0.2-0.1-0.3-0.1-0.4-0.2s-0.2-0.1-0.3-0.2c-0.1-0.1-0.2-0.1-0.2-0.1c-0.1,0-0.1,0-0.2,0c0,0-0.1,0.1-0.1,0.1l-0.4,0.6
			c0.1,0.1,0.3,0.2,0.4,0.4c0.2,0.1,0.3,0.2,0.5,0.3c0.2,0.1,0.4,0.1,0.6,0.2c0.2,0,0.4,0.1,0.6,0.1c0.4,0,0.7-0.1,1-0.2
			c0.3-0.1,0.5-0.3,0.7-0.5c0.2-0.2,0.3-0.4,0.4-0.7s0.2-0.5,0.2-0.8c0-0.3,0-0.5-0.1-0.7c-0.1-0.2-0.2-0.3-0.3-0.5
			c-0.1-0.1-0.3-0.2-0.5-0.3c-0.2-0.1-0.4-0.2-0.6-0.2c-0.2-0.1-0.4-0.1-0.6-0.2c-0.2-0.1-0.3-0.1-0.5-0.2c-0.1-0.1-0.3-0.2-0.3-0.3
			s-0.1-0.2-0.1-0.4c0-0.1,0-0.2,0.1-0.3s0.1-0.2,0.2-0.3s0.2-0.1,0.3-0.2c0.1,0,0.3-0.1,0.4-0.1c0.2,0,0.3,0,0.5,0.1
			c0.1,0,0.3,0.1,0.4,0.2c0.1,0.1,0.2,0.1,0.3,0.2c0.1,0,0.1,0.1,0.2,0.1c0.1,0,0.1,0,0.2,0C1052.6,370.3,1052.6,370.2,1052.7,370.2
			z M1055.8,370.8c-0.3,0-0.7,0.1-0.9,0.2c-0.3,0.1-0.5,0.3-0.7,0.5s-0.4,0.5-0.5,0.7c-0.1,0.3-0.2,0.6-0.2,1c0,0.4,0.1,0.7,0.2,1
			c0.1,0.3,0.3,0.5,0.5,0.8s0.4,0.4,0.7,0.5c0.3,0.1,0.6,0.2,0.9,0.2c0.3,0,0.7-0.1,0.9-0.2c0.3-0.1,0.5-0.3,0.7-0.5
			c0.2-0.2,0.4-0.5,0.5-0.8c0.1-0.3,0.2-0.6,0.2-1c0-0.4-0.1-0.7-0.2-1c-0.1-0.3-0.3-0.5-0.5-0.7c-0.2-0.2-0.4-0.4-0.7-0.5
			C1056.5,370.9,1056.2,370.8,1055.8,370.8z M1055.8,374.7c-0.4,0-0.7-0.1-0.9-0.4c-0.2-0.3-0.3-0.6-0.3-1.1c0-0.5,0.1-0.9,0.3-1.1
			s0.5-0.4,0.9-0.4c0.4,0,0.7,0.1,0.9,0.4s0.3,0.6,0.3,1.1c0,0.5-0.1,0.9-0.3,1.1S1056.2,374.7,1055.8,374.7z M1060,368.8h-1.1v6.7
			h1.1V368.8z M1063.8,372.1v2.1c-0.1,0.2-0.3,0.3-0.5,0.4c-0.2,0.1-0.4,0.1-0.6,0.1c-0.1,0-0.3,0-0.4-0.1c-0.1-0.1-0.2-0.1-0.3-0.3
			c-0.1-0.1-0.1-0.3-0.2-0.5c0-0.2-0.1-0.4-0.1-0.7c0-0.3,0-0.5,0.1-0.7c0.1-0.2,0.1-0.4,0.2-0.5c0.1-0.1,0.2-0.2,0.3-0.3
			c0.1-0.1,0.3-0.1,0.5-0.1c0.2,0,0.3,0,0.5,0.1C1063.6,371.8,1063.7,371.9,1063.8,372.1z M1064.9,368.8h-1.1v2.4
			c-0.1-0.1-0.3-0.2-0.5-0.3c-0.2-0.1-0.4-0.1-0.7-0.1c-0.3,0-0.6,0.1-0.8,0.2c-0.2,0.1-0.5,0.3-0.6,0.5s-0.3,0.5-0.4,0.8
			c-0.1,0.3-0.1,0.6-0.1,1c0,0.4,0,0.7,0.1,1c0.1,0.3,0.2,0.5,0.4,0.7c0.2,0.2,0.3,0.4,0.5,0.5c0.2,0.1,0.4,0.2,0.7,0.2
			c0.3,0,0.6-0.1,0.8-0.2c0.2-0.1,0.5-0.3,0.6-0.5l0.1,0.4c0,0.1,0.1,0.2,0.3,0.2h0.7V368.8z"/>
	</g>
</g>
</svg>
