<svg id="Layer_1" data-name="Layer 1" xmlns="http://www.w3.org/2000/svg" viewBox="0 0 144 144"><defs><style>.cls-1{fill:#4e4d4d;}</style></defs><title>sportsbike </title><path class="cls-1" d="M101.57,71.61A13.59,13.59,0,1,0,115.16,85.2,13.6,13.6,0,0,0,101.57,71.61Zm0,24.43A10.84,10.84,0,1,1,112.4,85.2,10.86,10.86,0,0,1,101.57,96Zm0-17.87a7,7,0,1,0,7,7A7,7,0,0,0,101.57,78.17Zm0,11.3a4.28,4.28,0,1,1,4.27-4.27A4.28,4.28,0,0,1,101.57,89.47ZM45.19,71.61A13.59,13.59,0,1,0,58.78,85.2,13.6,13.6,0,0,0,45.19,71.61Zm0,24.43A10.84,10.84,0,1,1,56,85.2,10.86,10.86,0,0,1,45.19,96Zm0-17.87a7,7,0,1,0,7,7A7,7,0,0,0,45.19,78.17Zm0,11.3a4.28,4.28,0,1,1,4.27-4.27A4.28,4.28,0,0,1,45.19,89.47Zm40-4.27a16.31,16.31,0,0,1,1.55-7l0,0A16.4,16.4,0,0,1,103.5,69a1.29,1.29,0,0,0,.55,0l.43-.13a1.6,1.6,0,0,0,.45-.23,33.43,33.43,0,0,0,5.34-6,1.35,1.35,0,0,0,.2-1.27c-3.18-9.3-13.51-14-14-14.17a1.38,1.38,0,0,0-1.43.2l-6.61,5.43a1.37,1.37,0,0,0-.5,1,1.41,1.41,0,0,0,.38,1l3.45,3.57-.73,3.27L85.6,57.53a1.31,1.31,0,0,0-.51-.23L77.9,55.6l-.1,0a11.83,11.83,0,0,0-1.66-.13,9.67,9.67,0,0,0-9.3,7.16l-.45,1.73-12-3.57-2.78-5a1.35,1.35,0,0,0-1-.68L38.66,53.33a7.88,7.88,0,0,0-6.79-3.89,7.23,7.23,0,0,0-2.07.28,1.33,1.33,0,0,0-.85.79A1.35,1.35,0,0,0,29,51.67l5.22,9.95a1.35,1.35,0,0,0,.64.61L58.28,73.06,65.72,92a1.37,1.37,0,0,0,1.28.88H85A1.39,1.39,0,0,0,86.29,91,16.09,16.09,0,0,1,85.22,85.2Zm6.16-31.28L96.15,50c2.25,1.17,8.92,5.09,11.47,11.49a34.76,34.76,0,0,1-4.15,4.71c-.65-.06-1.29-.1-1.9-.1a19.08,19.08,0,0,0-9.19,2.37l2.27-10.26A1.37,1.37,0,0,0,94.3,57ZM69.51,63.29v0a6.88,6.88,0,0,1,6.63-5,8,8,0,0,1,1.19.09l6.86,1.61,4.94,3.68L78,67.77l-9-2.65Zm-1.57,26.8-7.3-18.55a1.39,1.39,0,0,0-.7-.75L36.44,59.92l-4-7.7a5.34,5.34,0,0,1,4.21,3,1.4,1.4,0,0,0,1,.7l11.9,1.8,2.73,4.85a1.34,1.34,0,0,0,.81.64l24.59,7.29a1.47,1.47,0,0,0,.88,0l11.55-4.33L89,70.8a19.22,19.22,0,0,0-4.38,5.52H70.6a1.38,1.38,0,0,0,0,2.76H83.48a18.69,18.69,0,0,0-.9,4.08H76.33a1.38,1.38,0,1,0,0,2.75h6.16a18.93,18.93,0,0,0,.62,4.18Z"/></svg>