<svg id="Layer_1" data-name="Layer 1" xmlns="http://www.w3.org/2000/svg" viewBox="0 0 144 144"><defs><style>.cls-1{fill:#4e4d4d;}</style></defs><title>standard</title><path class="cls-1" d="M105.23,71.61a13.67,13.67,0,0,0-3.16.37l-.95-2.64,1.93-.69a1.37,1.37,0,0,0,.83-1.76l-.46-1.28a6,6,0,0,0,1.47.18h3a1.37,1.37,0,0,0,1.38-1.37V54.94a1.38,1.38,0,0,0-1.38-1.38h-3A6.11,6.11,0,0,0,100,56l-.52-1.47a1.37,1.37,0,0,0-1.76-.83l-1.93.69-2.08-5.8a3.54,3.54,0,0,0-3.51-2.39H84.61a1.38,1.38,0,0,0,0,2.75h5.56c.61,0,.82.27.9.44s2.12,5.92,2.12,5.92L91.26,56a1.74,1.74,0,0,0-.33.18,19.42,19.42,0,0,0-9.56-2.31c-5.26,0-9.77,1.74-12.24,4.4H42.92a6.62,6.62,0,0,0-6.61,6.61V66.1H26.55a1.37,1.37,0,0,0-1.37,1.38v4.81a1.34,1.34,0,0,0,.42,1l2.26,2.19a19,19,0,0,0-2.68,9.74,1.38,1.38,0,0,0,2.75,0,16.35,16.35,0,1,1,32,4.61,1.38,1.38,0,0,0,.93,1.71,1.32,1.32,0,0,0,.39.06H84a1.39,1.39,0,0,0,1.29-.91l8-22.16a4,4,0,0,1,.22-.58l.38-.42.93,2.62a1.39,1.39,0,0,0,1.3.91A1.48,1.48,0,0,0,96.6,71l1.93-.69.94,2.62a13.59,13.59,0,1,0,5.76-1.28Zm-.34-15.29h1.64V63h-1.64a3.36,3.36,0,0,1,0-6.72ZM39.06,64.91a3.85,3.85,0,0,1,3.86-3.85H67.45a6.31,6.31,0,0,0-.34,2,6.43,6.43,0,0,0,.76,3H39.06Zm-9.61,8.27L27.93,71.7V68.86h6.48A19.16,19.16,0,0,0,29.45,73.18ZM83,88.82H63a19.06,19.06,0,0,0,.35-3.62A19.56,19.56,0,0,0,63,81.51h5.71a1.38,1.38,0,1,0,0-2.75H62.25a19.19,19.19,0,0,0-8.11-9.9H90.26L89,72.38H73.74a1.38,1.38,0,1,0,0,2.75H88ZM91.47,66.1H71.26a4.41,4.41,0,0,1-1.4-3c0-3.49,5.27-6.44,11.51-6.44s11.5,3,11.5,6.44A4.37,4.37,0,0,1,91.47,66.1ZM95.56,64a6.52,6.52,0,0,0,.07-.88,7,7,0,0,0-2.14-4.9v0l3.86-1.38,3.49,9.74L97,67.9ZM105.23,96A10.84,10.84,0,1,1,116.07,85.2,10.86,10.86,0,0,1,105.23,96Zm0-17.87a7,7,0,1,0,7,7A7,7,0,0,0,105.23,78.17Zm0,11.3a4.28,4.28,0,1,1,4.28-4.27A4.28,4.28,0,0,1,105.23,89.47Zm-61-17.86A13.59,13.59,0,1,0,57.86,85.2,13.6,13.6,0,0,0,44.27,71.61Zm0,24.43A10.84,10.84,0,1,1,55.11,85.2,10.85,10.85,0,0,1,44.27,96Zm0-17.87a7,7,0,1,0,7,7A7,7,0,0,0,44.27,78.17Zm0,11.3a4.28,4.28,0,1,1,4.28-4.27A4.28,4.28,0,0,1,44.27,89.47Zm31.32-9.33v3.8a1.38,1.38,0,0,1-2.75,0v-3.8a1.38,1.38,0,1,1,2.75,0Zm5.51,0v3.8a1.38,1.38,0,0,1-2.75,0v-3.8a1.38,1.38,0,1,1,2.75,0Z"/></svg>