<svg id="Layer_1" data-name="Layer 1" xmlns="http://www.w3.org/2000/svg" viewBox="0 0 144 144"><defs><style>.cls-1{fill:#4e4d4d;}</style></defs><title>Trail</title><path class="cls-1" d="M43.81,71.61A13.59,13.59,0,1,0,57.4,85.2,13.6,13.6,0,0,0,43.81,71.61Zm0,24.43A10.84,10.84,0,1,1,54.65,85.2,10.86,10.86,0,0,1,43.81,96Z"/><path class="cls-1" d="M43.81,78.17a7,7,0,1,0,7,7A7,7,0,0,0,43.81,78.17Zm0,11.3a4.28,4.28,0,1,1,4.27-4.27A4.27,4.27,0,0,1,43.81,89.47Z"/><path class="cls-1" d="M100.19,71.61a13.89,13.89,0,0,0-3.37.42l-1.57-4.37L97.16,67a18.33,18.33,0,0,1,6.56.09,1.38,1.38,0,0,0,.52-2.71,21.37,21.37,0,0,0-6.62-.22L93,51.11a1.39,1.39,0,0,0-1.76-.83l-1.93.7-.89-2.5a3.9,3.9,0,0,0-3.62-2.54H79.93a1.38,1.38,0,0,0,0,2.76h4.75a1.12,1.12,0,0,1,1.08.67s.91,2.54.91,2.54l-1.93.69a1.38,1.38,0,0,0-.78.7,1.44,1.44,0,0,0,0,1.06l.21.57a17.43,17.43,0,0,0-4.19-.5,15,15,0,0,0-8,2.11c-1.15.68-6.41,3.53-11,2.23-11.92-3.38-27.2-7.91-27.36-8a1.38,1.38,0,0,0-1.63.73,6.19,6.19,0,0,0,0,4.77c.77,1.82,2.46,3.18,5,4,9,3.17,11.88,6.15,14,8.32,2.29,2.4,3.91,3.81,9,3.81h0C62.31,79.07,63.74,83,63.75,83a1.39,1.39,0,0,0,1.3.9H77.46a1.39,1.39,0,0,0,1-.46L91.06,69.17l1.6-.58L94.23,73a13.58,13.58,0,1,0,6-1.38ZM95,64.85,91.1,66.23,87,54.72l3.85-1.38ZM85.3,58.23l2,5.65H72.25a3.07,3.07,0,0,1-.91-2c0-2.25,3.45-4.67,8.59-4.67A13.16,13.16,0,0,1,85.3,58.23ZM76.84,81.14H66l-1.09-3h9a1.38,1.38,0,0,0,0-2.76h-10l-1.08-3H70a1.38,1.38,0,1,0,0-2.75H60.83c-5,.17-6-.87-8-2.94-2.27-2.38-5.38-5.63-15.05-9-1.76-.59-2.88-1.42-3.34-2.47a2.9,2.9,0,0,1-.24-1.4c4.05,1.2,16.16,4.76,26,7.55A14.81,14.81,0,0,0,68.66,61a4.91,4.91,0,0,0-.07.86,5.89,5.89,0,0,0,2.18,4.43,1.4,1.4,0,0,0,.92.35H88.32l.38,1.06ZM100.19,96A10.84,10.84,0,1,1,111,85.2,10.86,10.86,0,0,1,100.19,96Z"/><path class="cls-1" d="M100.19,78.17a7,7,0,1,0,7,7A7,7,0,0,0,100.19,78.17Zm0,11.3a4.28,4.28,0,1,1,4.27-4.27A4.27,4.27,0,0,1,100.19,89.47Z"/></svg>